<svg id="Layer_0_Image" data-name="Layer 0 Image" xmlns="http://www.w3.org/2000/svg" viewBox="0 0 2481 2236"><defs><style>.cls-1{fill:#fff;}</style></defs><title>alex-merry</title><path class="cls-1" d="M2280,142h14q0,964.89,0,1929.89H151q0-257.9,0-515.89c1.66-.07,3.31-.21,5-.21H613.51v-30.4l-3.15-.55c-15.24-2.56-30.71-4.14-45.66-7.87-34.59-8.63-64-25.81-85.49-55.15-27.25-37.28-33.14-79-25.94-123.51,5.79-35.79,16.14-70.34,29-104.09,29.55-77.36,59.62-154.53,89.31-231.84,1.4-3.66,3.61-3.6,6.51-3.6q136.75,0,273.49,0h6.51c-7.69-15.41-15.12-29.9-22.12-44.59-1.81-3.79-4-4.83-8-4.82q-114.25.17-228.49.08h-7.24L804.47,394c1,2.2,1.67,3.53,2.26,4.9l187,434.55q121.87,283.28,243.74,566.56,28.1,65.32,56.18,130.65c1.37,3.21,3,4.56,6.55,4.34a96,96,0,0,1,15.48,0c5,.5,7.18-1.5,9.09-6q54.77-129.08,109.85-258l174.54-409.45Q1722,596.65,1834.95,331.79c.6-1.41,1.42-2.72,2.14-4.07l1,.3v6.3q0,419.74-.08,839.48c0,37.14-.87,74.28-1.92,111.4a426,426,0,0,1-8.94,77.26c-10,46.82-34,84-75,109.76-30.59,19.23-64.68,26.41-99.9,29.94-9.22.92-18.47,1.54-27.74,2.3v30h655v-30.06c-5.07-.42-9.7-.85-14.35-1.19-29.4-2.12-58.05-7.72-85.27-19.25-34.58-14.64-63.65-36.09-82.58-69.41-14.4-25.35-20.74-53.17-24.29-81.74-4.95-39.89-6.07-80-6.07-120.16q0-353,0-706c0-26,.29-52,.67-78,.53-36.5,4-72.76,9.16-108.89,8.45-58.65,42.45-98.18,93.44-124.51,27.06-14,57-17.68,86.91-20.47,7.43-.69,14.88-1.09,22.91-1.66ZM1214.64,1721v162.62h23.82V1768.79a18.32,18.32,0,0,1,4.55,5.73c14.37,25.53,28.86,51,43,76.66,2.39,4.36,5.48,4.46,9.41,4.41s7.05.14,9.48-4.3c14.38-26.28,29.17-52.34,43.83-78.46.83-1.49,1.76-2.92,2.65-4.38l1.19.39v114.9h24v-12.19q0-72.49.08-145c0-4.22-.86-6.1-5.48-5.72a104.47,104.47,0,0,1-14.49,0c-3.28-.18-5.06,1-6.64,3.87-11.17,20.26-22.53,40.41-33.83,60.6-6.8,12.13-13.61,24.26-20.79,37.06-1.42-2.39-2.47-4.05-3.43-5.77q-25.54-45.78-51.15-91.53c-1-1.74-3.11-3.85-4.82-4C1229,1720.69,1222,1721,1214.64,1721Zm584,101.89a12.29,12.29,0,0,1,1.73-1.13c22.59-8.5,34.1-34.64,29.4-57.9-4.59-22.77-23.76-43.08-49.41-42.88-22.33.18-44.65,0-67,0a17.11,17.11,0,0,0-2.84.48V1883.7h23.55c0-2.31,0-4.27,0-6.22,0-15.16.1-30.33-.06-45.49,0-3.78.9-5.33,5-5.2,9.82.29,19.67.31,29.49,0,3.91-.13,6,1.35,7.93,4.5,10.21,16.39,20.6,32.67,31,48.93.92,1.44,2.38,3.55,3.66,3.6,8.37.32,16.76.17,26.07.17Zm142.94-101.54v162.35h23.51c0-2.37,0-4.33,0-6.3,0-15.16.12-30.33-.08-45.49-.05-4,1.22-5.18,5.15-5.08q14.74.38,29.49,0c3.61-.09,5.71,1.09,7.62,4.15,10.29,16.53,20.79,32.94,31.27,49.36.85,1.34,2.1,3.4,3.22,3.44,8.52.29,17,.16,26.41.16l-38.54-61.08c25.42-13.7,35.78-33.09,31.15-58.62-4.16-22.92-23.77-43.41-49-43.24-22.33.15-44.65,0-67,0A31.52,31.52,0,0,0,1941.55,1721.3ZM635.46,1883.77H747.55c0-5.56-.26-10.86.08-16.13.28-4.31-1.43-5.29-5.45-5.26-25.82.15-51.64,0-77.47.17-4.25,0-5.84-.95-5.75-5.5q.43-20.23,0-40.48c-.09-4.51,1.47-5.62,5.76-5.59,21,.19,42,.09,63,.07,1.94,0,3.88-.16,6-.26v-20.34h-6.19c-21.16,0-42.32-.1-63.47.08-4,0-5.14-1.27-5.08-5.13.19-12.66.06-25.32.09-38,0-1.45.24-2.9.41-4.87h22.75c19.49,0,39,.06,58.47-.12,1.61,0,4.52-1.6,4.6-2.62.44-6.09.22-12.22.22-18.51H635.46Zm857.16-162.55v162.55h111.92c0-5.55-.25-10.86.08-16.12.27-4.28-1.4-5.31-5.44-5.28-25.49.16-51,.08-76.47.08h-6.32c-.13-2.16-.32-3.78-.32-5.39,0-13.49.16-27-.11-40.48-.09-4.49,1.43-5.64,5.74-5.6,21,.19,42,.09,63,.07,1.94,0,3.88-.16,6.06-.26v-20.34h-6.18c-21.16,0-42.32-.1-63.47.08-4,0-5.15-1.23-5.09-5.12.19-12.66.06-25.32.09-38,0-1.45.23-2.9.4-4.89h20.73c20.16,0,40.32.06,60.47-.12,1.62,0,4.54-1.59,4.61-2.6.44-6.09.22-12.22.22-18.61ZM322.71,1884c-1-2.67-1.61-4.54-2.36-6.37q-29.41-71.8-58.84-143.59c-5.44-13.26-5.45-13.13-19.63-13.24-3.73,0-5.5,1.13-6.94,4.66q-25.23,61.92-50.79,123.7c-4.67,11.34-9.32,22.69-14.32,34.85,7.53,0,14.3-.23,21.05.09,3.67.17,5.19-1.3,6.42-4.54,4.81-12.58,10-25,14.82-37.59,1.24-3.24,2.83-4.6,6.49-4.56q27.75.3,55.5,0c3.41,0,5,1.13,6.17,4.26q7.48,19.31,15.54,38.39c.68,1.61,2.69,3.68,4.18,3.76C307.32,1884.26,314.65,1884,322.71,1884ZM834,1721c1.91,2.71,3.19,4.6,4.54,6.42,17.76,23.94,35.48,47.91,53.37,71.76,2.44,3.25,2.84,5.44.19,9-17.82,23.69-35.37,47.58-53,71.41-.91,1.23-1.68,2.57-2.95,4.53,8.17,0,15.33-.17,22.47.08,3.24.11,5.18-1.09,7-3.66,5.54-7.91,11.31-15.66,17-23.47l25.81-35.47c1.33,1.7,2.38,3,3.34,4.27q19.7,27.05,39.42,54.1c1.13,1.54,2.69,3.82,4.14,3.89,8.19.38,16.41.18,25.45.18-1.53-2.23-2.41-3.6-3.37-4.91-17.52-23.7-35-47.46-52.67-71-2.45-3.26-2.47-5.29,0-8.53,15.84-21,31.45-42.19,47.12-63.33,3.53-4.76,7-9.56,11.14-15.24-8,0-15,.19-21.89-.08-3.56-.14-5.78,1.06-7.86,3.94-13.53,18.78-27.23,37.44-40.88,56.13-1.14,1.56-2.35,3.07-3.79,4.94-1.67-2.17-3-3.84-4.27-5.57Q884.1,1752.66,863.9,1725c-1.19-1.62-3-3.79-4.66-3.87C851.18,1720.77,843.08,1721,834,1721Zm1459.63,0c-7.9,0-14.55.22-21.17-.08-3.81-.17-5.93,1.07-7.87,4.44-13.91,24.07-28.05,48-42.14,72-.83,1.41-1.74,2.76-2.89,4.58-1.34-2.09-2.47-3.7-3.45-5.4q-20.7-35.61-41.42-71.22c-.93-1.6-2.47-3.94-3.82-4-8.05-.38-16.13-.19-24.89-.19,1.2,2.23,1.92,3.69,2.75,5.08,18.47,30.85,37,61.65,55.31,92.61a24.89,24.89,0,0,1,3.26,11.6c.36,15.82.14,31.66.16,47.48,0,1.94.18,3.89.3,6.27,6.3,0,12.13-.25,17.92.08,4.44.25,6.07-.94,6-5.74-.31-16.16-.25-32.33,0-48.48a19.76,19.76,0,0,1,2.49-9.33c12.39-21.1,25-42,37.61-63C2278.83,1745.74,2285.89,1733.91,2293.64,1720.94ZM534.06,1883.83c0-5.69-.3-10.84.09-15.94.35-4.55-1.38-5.56-5.67-5.53-25.65.18-51.3.09-76.95.09-6.46,0-6.47,0-6.47-6.58q0-64.21,0-128.41c0-2.08-.19-4.15-.28-6h-23.2v162.39ZM1244,2036.89c14.1-6.76,19.5-16.53,17.94-31.42-1.41-13.39-13.31-24.21-26.72-24.25-9.5,0-19,0-28.49,0h-8.29v89.16h10.71v-31.83c6.89,0,13.23-.27,19.53.15a8.62,8.62,0,0,1,5.81,3.29c5.66,8.42,10.84,17.16,16.36,25.68a6.78,6.78,0,0,0,4,3c3,.46,6.19.14,10.3.14Zm323.51,34.47c3.29-.39,6.66-.43,9.85-1.24,31.83-8,42.92-50.18,20-76-15.19-17.14-40.55-18.06-56.86-2.07a47.77,47.77,0,0,0-4.65,62.86C1543.72,2065.29,1554,2071.29,1567.47,2071.36Zm420.68-51.27h-49.47v-38.53h-10.31v88.85h10.55v-40.32h49.27v40.3h10.34v-88.88h-10.38Zm-1231-38.58H699.34v88.95h59.09v-9.06h-48.3v-31.76h40.68v-9.09H710.22v-30h4.41c12.66,0,25.33-.16,38,.09,4.14.08,5.42-1.45,4.92-5.22C757.38,1984.13,757.26,1982.85,757.11,1981.5Zm378.5,89.09v-9.11h-48.46v-31.9h40.64v-9.09h-40.71v-29.94h5.63c12.5,0,25-.08,37.49.05,3.18,0,4.75-.9,4.36-4.25-.19-1.6-.23-3.23-.33-4.82h-57.86v89.07Zm-688.45-11.69c13.84,11.62,36.21,15.74,52.21,9.85,9.18-3.37,15.11-10.85,15.49-19.52.54-12.37-3.08-18.73-13.66-23.5a64.54,64.54,0,0,0-8.92-3.16c-7-2-14.22-3.48-21.14-5.81-7.3-2.46-9.81-6.6-9.34-13.48.42-6.11,4.59-10.82,11.21-12.4,10.66-2.55,20.45-.41,29.44,5.76l3.79,2.58,4.57-8c-11.94-11.62-36.06-14.07-49.51-5.15a25.56,25.56,0,0,0-4.9,4.22c-11.1,12.43-7,30.3,8.43,36.3,4.63,1.8,9.55,2.85,14.31,4.32,5.39,1.67,10.92,3.06,16.08,5.26,6.23,2.66,8.56,7.13,7.94,13.53-.58,6-4.51,9.11-9.86,10.54a40.76,40.76,0,0,1-26.42-1.7c-5.13-2.09-9.88-5.11-15.11-7.88Zm513.62,11.68c0-8.21,0-15.86,0-23.5,0-1.44,0-3.38.81-4.22,4.93-4.9,10.12-9.55,15.42-14.47,8.63,11.64,18.15,23.46,26.43,36.09,4.36,6.65,9.43,7,16.34,5.89-1.07-1.57-1.85-2.79-2.72-4-10.38-13.87-20.67-27.81-31.23-41.53-2.27-3-2.41-4.77.16-7.57,9.48-10.29,18.72-20.8,28-31.24,1.17-1.31,2.27-2.67,3.65-4.29-7.06-1.58-12-.32-16.64,5.14-11.57,13.54-23.89,26.44-35.93,39.58-1.13,1.23-2.4,2.33-4.55,4.4v-49.38H950.37v89.05Zm-373.9-32c9.05,0,17.38.17,25.7,0,14.22-.36,25.14-10.59,26.33-24.4,1.4-16.21-7.38-30.67-21.66-32.22-13.44-1.46-27.16-.31-40.89-.31v88.85h10.52ZM1740,2070.48c-.61-1.73-1-3-1.5-4.19-10.9-27-21.86-53.94-32.65-81-1.23-3.07-2.68-4.31-6.14-4.27s-5.22,1.05-6.56,4.41c-10.85,27.18-21.92,54.27-32.9,81.4a37.1,37.1,0,0,0-1.08,3.9,26.55,26.55,0,0,1,4.54,0c5.25,1,7.75-1.37,9.24-6.25,1.6-5.23,4.15-10.16,5.94-15.35,1.14-3.3,2.77-4.66,6.46-4.54,9.49.29,19,.22,28.49,0,3.11-.06,4.86.78,5.89,3.87,1.47,4.41,3.45,8.65,5.19,13C1728.85,2071.36,1728.84,2071.37,1740,2070.48Zm-848.21-.22c-.45-1.37-.82-2.78-1.36-4.12-10.83-26.83-21.74-53.63-32.47-80.49-1.28-3.2-2.75-4.58-6.43-4.59s-5.16,1.43-6.43,4.6c-10.84,27-21.83,53.95-32.76,80.92-.48,1.19-.76,2.46-1.29,4.21a33.54,33.54,0,0,1,5.33,0c4.59.81,6.87-1.13,8.29-5.48,1.9-5.84,4.62-11.41,6.69-17.2,1-2.67,2.43-3.46,5.16-3.43,10,.14,20,.16,30,0,2.84,0,4.14,1,5.06,3.58,1.68,4.69,3.71,9.26,5.57,13.89,3.68,9.15,3.67,9.16,13.5,8.53A5.07,5.07,0,0,0,891.75,2070.26Zm579.18-69.91c-9-17.62-25.24-22.24-42.7-18.4-20,4.39-32.81,23.22-32,46,.8,21.3,18.56,46.65,46.75,42.93,12.82-1.69,23.2-7.41,29.75-19.83l-8.88-4.88c-.63.82-1.06,1.32-1.43,1.87-11.52,17.09-32.8,18.44-46.26,2.93-11.5-13.25-11.95-35.72-1-49.47,12.61-15.82,35.18-14.73,46,2.22.43.66.92,1.28,1.54,2.15Zm395.9.17c-8.17-17.92-27.33-23.36-45.7-17.76-20.72,6.32-33,29.5-27.77,52.75,6.75,30.11,35.81,45.46,63.1,29.15a27.47,27.47,0,0,0,12.06-13.62c-1.7-1-3.07-1.93-4.51-2.71s-2.85-1.39-4.25-2.06c-11.86,20.75-40.69,21-52.29-2.62-6.5-13.22-5.74-26.41,1.62-39.09a28,28,0,0,1,15.47-12.74c13.09-4.49,24.5.11,34.19,13.91Z"/><path d="M2280,142v31.19c-8,.57-15.49,1-22.91,1.66-29.92,2.79-59.85,6.5-86.91,20.47-51,26.33-85,65.87-93.44,124.51-5.2,36.13-8.63,72.39-9.16,108.89-.38,26-.66,52-.67,78q-.07,353,0,706c0,40.15,1.12,80.26,6.07,120.16,3.54,28.57,9.88,56.39,24.29,81.74,18.93,33.32,48,54.77,82.58,69.41,27.22,11.53,55.88,17.12,85.27,19.25,4.65.34,9.29.77,14.35,1.19v30.06h-655v-30c9.27-.76,18.52-1.38,27.74-2.3,35.22-3.53,69.31-10.71,99.9-29.94,41-25.75,65-62.95,75-109.76a426,426,0,0,0,8.94-77.26c1.05-37.12,1.9-74.27,1.92-111.4q.23-419.74.08-839.48V328l-1-.3c-.72,1.36-1.54,2.67-2.14,4.07Q1722,596.64,1609.13,861.51L1434.59,1271q-55,129-109.85,258c-1.91,4.5-4.07,6.5-9.09,6a96,96,0,0,0-15.48,0c-3.57.23-5.18-1.13-6.55-4.34q-28-65.38-56.18-130.65Q1115.55,1116.7,993.68,833.41l-187-434.55c-.59-1.36-1.24-2.7-2.26-4.9L592.28,949.45h7.24q114.25,0,228.49-.08c4,0,6.19,1,8,4.82,7,14.69,14.43,29.18,22.12,44.59h-6.51q-136.75,0-273.49,0c-2.9,0-5.1-.05-6.51,3.6-29.69,77.31-59.76,154.48-89.31,231.84-12.89,33.75-23.25,68.3-29,104.09-7.2,44.52-1.31,86.24,25.94,123.51,21.45,29.34,50.89,46.52,85.49,55.15,14.94,3.73,30.42,5.31,45.66,7.87l3.15.55v30.4H156c-1.66,0-3.31.14-5,.21q0-15.5,0-31c8-.68,15.94-1.05,23.85-2.07,45.74-5.9,84.69-25.5,116.94-58.43,28.74-29.35,52.3-62.53,72.41-98.25,24.14-42.86,43.81-87.84,61.93-133.44q59.13-148.81,117-298.11Q691.56,553,839.6,171.14c3.77-9.72,7.6-19.43,11.4-29.14H967c.64,1.69,1.24,3.39,1.91,5.06q54.33,134.32,108.68,268.64Q1163,626.57,1248.41,837.43q76.62,189.13,153.26,378.25c.5,1.25,1.17,2.42,2.16,4.43,1.13-2.61,1.86-4.25,2.56-5.91q80.48-191.59,161-383.19,127.84-304.3,255.7-608.59,16.91-40.24,34-80.42Z"/><path class="cls-1" d="M851,142c-3.8,9.71-7.63,19.42-11.4,29.14Q691.39,552.93,543.14,934.7q-58,149.24-117,298.11c-18.12,45.6-37.79,90.58-61.93,133.44-20.11,35.71-43.67,68.9-72.41,98.25-32.25,32.93-71.2,52.53-116.94,58.43-7.91,1-15.9,1.4-23.85,2.07q0-691.33,0-1383Z"/><path class="cls-1" d="M1857,142q-17,40.21-34,80.42Q1695.18,526.71,1567.34,831q-80.49,191.59-161,383.19c-.7,1.66-1.43,3.31-2.56,5.91-1-2-1.65-3.19-2.16-4.43Q1325,1026.56,1248.41,837.43,1163,626.57,1077.6,415.7q-54.38-134.3-108.68-268.64c-.68-1.67-1.28-3.37-1.91-5.06Z"/><path d="M1214.64,1721c7.41,0,14.41-.26,21.37.19,1.71.11,3.85,2.23,4.82,4q25.7,45.69,51.15,91.53c1,1.71,2,3.38,3.43,5.77,7.18-12.8,14-24.93,20.79-37.06,11.3-20.18,22.66-40.34,33.83-60.6,1.58-2.87,3.36-4.05,6.64-3.87a104.47,104.47,0,0,0,14.49,0c4.62-.38,5.49,1.5,5.48,5.72q-.2,72.49-.08,145v12.19h-24v-114.9l-1.19-.39c-.89,1.46-1.81,2.89-2.65,4.38-14.66,26.13-29.45,52.18-43.83,78.46-2.43,4.44-5.62,4.25-9.48,4.3s-7-.05-9.41-4.41c-14.1-25.68-28.59-51.14-43-76.66a18.32,18.32,0,0,0-4.55-5.73v114.78h-23.82Z"/><path d="M1798.61,1822.84l38.57,61.13c-9.31,0-17.7.16-26.07-.17-1.28,0-2.74-2.15-3.66-3.6-10.41-16.27-20.8-32.54-31-48.93-2-3.15-4-4.63-7.93-4.5-9.82.32-19.66.3-29.49,0-4.13-.12-5.07,1.42-5,5.2.16,15.16.07,30.32.06,45.49,0,2,0,3.91,0,6.22h-23.55V1721.46a17.11,17.11,0,0,1,2.84-.48c22.33,0,44.65.13,67,0,25.64-.2,44.82,20.12,49.41,42.88,4.69,23.26-6.82,49.4-29.4,57.9A12.29,12.29,0,0,0,1798.61,1822.84Zm-64.55-18.38a8.57,8.57,0,0,0,1.73.65c14.48,0,29-.09,43.45.16,10.48.18,17.74-4.67,22.73-13.44,4.19-7.36,5.25-15.37,4.13-23.66-2-14.64-13.49-25.27-28-25.56-13.31-.26-26.64,0-40-.13-3.53,0-4.12,1.58-4.09,4.55.09,11.15,0,22.31,0,33.46C1734.06,1788.46,1734.06,1796.42,1734.06,1804.46Z"/><path d="M1941.55,1721.3a31.52,31.52,0,0,1,3.19-.34c22.33,0,44.65.14,67,0,25.27-.17,44.88,20.32,49,43.24,4.63,25.53-5.73,44.92-31.15,58.62l38.54,61.08c-9.36,0-17.9.13-26.41-.16-1.12,0-2.37-2.1-3.22-3.44-10.48-16.42-21-32.83-31.27-49.36-1.91-3.06-4-4.24-7.62-4.15q-14.74.37-29.49,0c-3.94-.1-5.2,1.12-5.15,5.08.19,15.16.08,30.32.08,45.49,0,2,0,3.93,0,6.3h-23.51Zm23.51,83.91h5.66c13.32,0,26.64-.13,40,0,9.61.12,16.55-4.21,21.5-12.09,4.81-7.65,6.1-16.1,4.93-24.93-2-14.86-13.58-25.4-28.47-25.64-13-.21-26,.09-39-.13-3.95-.07-4.71,1.52-4.68,5,.13,16.15.06,32.3.05,48.44C1965.06,1798.72,1965.06,1801.53,1965.06,1805.22Z"/><path d="M635.46,1883.77V1721.3H745.52c0,6.28.22,12.42-.22,18.51-.07,1-3,2.6-4.6,2.62-19.49.18-39,.12-58.47.12H659.49c-.17,2-.4,3.42-.41,4.87,0,12.66.1,25.32-.09,38-.06,3.86,1.07,5.17,5.08,5.13,21.16-.18,42.31-.08,63.47-.08h6.19v20.34c-2.16.1-4.1.26-6,.26-21,0-42,.12-63-.07-4.29,0-5.85,1.07-5.76,5.59q.41,20.23,0,40.48c-.1,4.56,1.49,5.53,5.75,5.5,25.82-.18,51.64,0,77.47-.17,4,0,5.73,1,5.45,5.26-.34,5.27-.08,10.57-.08,16.13Z"/><path d="M1492.63,1721.22h109.89c0,6.38.22,12.52-.22,18.61-.07,1-3,2.59-4.61,2.6-20.16.18-40.31.12-60.47.12h-20.73c-.17,2-.4,3.44-.4,4.89,0,12.66.1,25.32-.09,38-.06,3.88,1.11,5.15,5.09,5.12,21.16-.18,42.31-.08,63.47-.08h6.18v20.34c-2.18.1-4.12.25-6.06.26-21,0-42,.12-63-.07-4.31,0-5.83,1.11-5.74,5.6.27,13.49.09,27,.11,40.48,0,1.62.19,3.23.32,5.39h6.32c25.49,0,51,.08,76.47-.08,4,0,5.71,1,5.44,5.28-.33,5.26-.08,10.57-.08,16.12H1492.63Z"/><path d="M322.71,1884c-8.06,0-15.39.21-22.69-.18-1.49-.08-3.51-2.15-4.18-3.76q-8-19.08-15.54-38.39c-1.21-3.13-2.75-4.29-6.17-4.26q-27.75.25-55.5,0c-3.66,0-5.25,1.32-6.49,4.56-4.83,12.58-10,25-14.82,37.59-1.24,3.24-2.75,4.71-6.42,4.54-6.75-.31-13.53-.09-21.05-.09,5-12.16,9.65-23.51,14.32-34.85q25.44-61.83,50.79-123.7c1.44-3.53,3.21-4.69,6.94-4.66,14.18.11,14.2,0,19.63,13.24q29.43,71.79,58.84,143.59C321.1,1879.5,321.73,1881.38,322.71,1884Zm-50.28-66.25-26-66.56-26.77,66.56Z"/><path d="M834,1721c9.08,0,17.17-.22,25.23.18,1.63.08,3.47,2.25,4.66,3.87q20.28,27.57,40.37,55.27c1.26,1.73,2.6,3.4,4.27,5.57,1.44-1.87,2.65-3.38,3.79-4.94,13.65-18.69,27.35-37.35,40.88-56.13,2.07-2.88,4.29-4.08,7.86-3.94,6.92.27,13.86.08,21.89.08-4.15,5.68-7.62,10.48-11.14,15.24-15.67,21.14-31.29,42.32-47.12,63.33-2.44,3.24-2.42,5.26,0,8.53,17.69,23.57,35.15,47.33,52.67,71,1,1.31,1.85,2.68,3.37,4.91-9,0-17.26.19-25.45-.18-1.45-.07-3-2.35-4.14-3.89q-19.77-27-39.42-54.1c-1-1.32-2-2.57-3.34-4.27L882.61,1857c-5.68,7.81-11.45,15.56-17,23.47-1.8,2.57-3.74,3.77-7,3.66-7.14-.24-14.3-.08-22.47-.08,1.27-2,2-3.29,2.95-4.53,17.62-23.83,35.18-47.72,53-71.41,2.65-3.52,2.25-5.71-.19-9-17.89-23.84-35.61-47.82-53.37-71.76C837.19,1725.58,835.92,1723.7,834,1721Z"/><path d="M2293.64,1720.94c-7.75,13-14.81,24.8-21.88,36.61-12.57,21-25.22,41.94-37.61,63a19.76,19.76,0,0,0-2.49,9.33c-.24,16.16-.3,32.33,0,48.48.09,4.8-1.54,6-6,5.74-5.79-.33-11.62-.08-17.92-.08-.12-2.38-.3-4.33-.3-6.27,0-15.83.2-31.66-.16-47.48a24.89,24.89,0,0,0-3.26-11.6c-18.28-31-36.84-61.76-55.31-92.61-.83-1.39-1.55-2.85-2.75-5.08,8.76,0,16.84-.19,24.89.19,1.35.06,2.89,2.41,3.82,4q20.78,35.57,41.42,71.22c1,1.69,2.11,3.3,3.45,5.4,1.15-1.82,2.07-3.17,2.89-4.58,14.08-24,28.23-47.89,42.14-72,1.95-3.37,4.07-4.61,7.87-4.44C2279.09,1721.16,2285.73,1720.94,2293.64,1720.94Z"/><path d="M534.06,1883.83H421.57V1721.44h23.2c.09,1.87.28,3.95.28,6q0,64.21,0,128.41c0,6.57,0,6.57,6.47,6.58,25.65,0,51.3.1,76.95-.09,4.29,0,6,1,5.67,5.53C533.76,1873,534.06,1878.14,534.06,1883.83Z"/><path d="M1244,2036.89l21.1,33.89c-4.1,0-7.26.32-10.3-.14a6.78,6.78,0,0,1-4-3c-5.52-8.52-10.7-17.26-16.36-25.68a8.62,8.62,0,0,0-5.81-3.29c-6.29-.42-12.63-.15-19.53-.15v31.83H1198.4v-89.16h8.29c9.5,0,19,0,28.49,0,13.4,0,25.31,10.85,26.72,24.25C1263.45,2020.35,1258.05,2030.13,1244,2036.89Zm-34.86-46v38.37c8.08,0,15.86,0,23.63,0,10.44,0,16.36-5,18.25-15.3s-4.21-22-12.89-22.85C1228.59,1990.14,1218.94,1990.85,1209.09,1990.85Z"/><path d="M1567.47,2071.36c-13.42-.07-23.74-6.07-31.62-16.43a47.77,47.77,0,0,1,4.65-62.86c16.31-16,41.67-15.07,56.86,2.07,22.87,25.8,11.79,67.94-20,76C1574.13,2070.92,1570.76,2071,1567.47,2071.36Zm-30-45.89c-.08,10.15,2.81,18.65,8.93,26,10.91,13,29.53,13.72,41.49,1.68,13-13.09,14.17-36.91,2.55-51.37-12.55-15.62-33.88-15.21-45.71,1A36.77,36.77,0,0,0,1537.48,2025.47Z"/><path d="M1988.15,2020.09v-38.58h10.38v88.88H1988.2v-40.3h-49.27v40.32h-10.55v-88.85h10.31v38.53Z"/><path d="M757.11,1981.5c.15,1.34.27,2.63.44,3.91.5,3.77-.79,5.3-4.92,5.22-12.66-.25-25.33-.09-38-.09h-4.41v30h40.58v9.09H710.13v31.76h48.3v9.06H699.34V1981.5Z"/><path d="M1135.61,2070.59h-59.25v-89.07h57.86c.11,1.6.15,3.22.33,4.82.39,3.35-1.19,4.28-4.36,4.25-12.5-.13-25-.05-37.49-.05h-5.63v29.94h40.71v9.09h-40.64v31.9h48.46Z"/><path d="M447.16,2058.91l4.62-8.25c5.23,2.77,10,5.79,15.11,7.88a40.76,40.76,0,0,0,26.42,1.7c5.36-1.44,9.28-4.56,9.86-10.54.62-6.4-1.71-10.87-7.94-13.53-5.17-2.21-10.69-3.59-16.08-5.26-4.76-1.48-9.68-2.52-14.31-4.32-15.43-6-19.53-23.87-8.43-36.3a25.56,25.56,0,0,1,4.9-4.22c13.46-8.92,37.57-6.47,49.51,5.15l-4.57,8-3.79-2.58c-9-6.16-18.77-8.3-29.44-5.76-6.63,1.58-10.79,6.3-11.21,12.4-.47,6.88,2,11,9.34,13.48,6.91,2.33,14.11,3.82,21.14,5.81a64.54,64.54,0,0,1,8.92,3.16c10.57,4.77,14.2,11.13,13.66,23.5-.38,8.67-6.31,16.15-15.49,19.52C483.37,2074.64,461,2070.52,447.16,2058.91Z"/><path d="M960.78,2070.59H950.37v-89.05h10.24v49.38c2.15-2.07,3.42-3.17,4.55-4.4,12-13.14,24.36-26,35.93-39.58,4.67-5.46,9.58-6.72,16.64-5.14-1.38,1.62-2.48,3-3.65,4.29-9.32,10.44-18.55,21-28,31.24-2.58,2.8-2.44,4.61-.16,7.57,10.57,13.73,20.86,27.66,31.23,41.53.87,1.16,1.65,2.39,2.72,4-6.91,1.1-12,.76-16.34-5.89-8.28-12.63-17.8-24.44-26.43-36.09-5.3,4.92-10.49,9.57-15.42,14.47-.85.84-.8,2.78-.81,4.22C960.74,2054.73,960.78,2062.38,960.78,2070.59Z"/><path d="M586.88,2038.54v31.87H576.37v-88.85c13.73,0,27.45-1.15,40.89.31,14.28,1.55,23.06,16,21.66,32.22-1.19,13.81-12.11,24-26.33,24.4C604.26,2038.71,595.93,2038.54,586.88,2038.54Zm.13-9.7a15.18,15.18,0,0,0,2,.34c7,0,14,.07,21,0,10.09,0,15.65-4.6,17.86-14.51,2.31-10.38-3.52-22.62-12.37-23.58-9.3-1-18.8-.23-28.44-.23Z"/><path d="M1740,2070.48c-11.12.88-11.12.88-15.09-8.94-1.75-4.32-3.72-8.56-5.19-13-1-3.1-2.78-3.93-5.89-3.87-9.49.19-19,.26-28.49,0-3.69-.11-5.33,1.24-6.46,4.54-1.78,5.18-4.34,10.12-5.94,15.35-1.49,4.88-4,7.28-9.24,6.25a26.55,26.55,0,0,0-4.54,0,37.1,37.1,0,0,1,1.08-3.9c11-27.13,22.05-54.22,32.9-81.4,1.34-3.36,3.06-4.36,6.56-4.41s4.92,1.2,6.14,4.27c10.8,27,21.75,54,32.65,81C1739,2067.51,1739.35,2068.76,1740,2070.48Zm-39.82-74.58-1.22-.18L1683,2035.81h32.56Z"/><path d="M891.75,2070.26a5.07,5.07,0,0,1-1.15.45c-9.84.63-9.83.63-13.5-8.53-1.86-4.63-3.89-9.2-5.57-13.89-.92-2.57-2.22-3.62-5.06-3.58-10,.17-20,.15-30,0-2.73,0-4.2.75-5.16,3.43-2.07,5.79-4.79,11.36-6.69,17.2-1.42,4.35-3.7,6.28-8.29,5.48a33.54,33.54,0,0,0-5.33,0c.53-1.75.81-3,1.29-4.21,10.93-27,21.92-53.91,32.76-80.92,1.27-3.17,2.72-4.62,6.43-4.6s5.15,1.39,6.43,4.59c10.73,26.87,21.64,53.67,32.47,80.49C890.93,2067.48,891.31,2068.89,891.75,2070.26Zm-40.26-76L835,2035.84h32.6Z"/><path d="M1470.93,2000.35l-8.15,5.48c-.62-.86-1.12-1.48-1.54-2.15-10.85-17-33.42-18-46-2.22-11,13.75-10.51,36.23,1,49.47,13.46,15.51,34.74,14.16,46.26-2.93.37-.55.8-1.05,1.43-1.87l8.88,4.88c-6.54,12.42-16.93,18.14-29.75,19.83-28.19,3.72-45.95-21.63-46.75-42.93-.86-22.75,12-41.57,32-46C1445.69,1978.11,1461.94,1982.73,1470.93,2000.35Z"/><path d="M1866.83,2000.52l-8.08,5.22c-9.69-13.8-21.1-18.4-34.19-13.91a28,28,0,0,0-15.47,12.74c-7.36,12.68-8.12,25.87-1.62,39.09,11.61,23.61,40.44,23.36,52.29,2.62,1.4.67,2.86,1.31,4.25,2.06s2.81,1.68,4.51,2.71a27.47,27.47,0,0,1-12.06,13.62c-27.29,16.31-56.35,1-63.1-29.15-5.21-23.25,7-46.44,27.77-52.75C1839.51,1977.16,1858.66,1982.6,1866.83,2000.52Z"/><path class="cls-1" d="M1734.06,1804.46c0-8,0-16,0-24,0-11.15.06-22.31,0-33.46,0-3,.57-4.59,4.09-4.55,13.32.16,26.64-.13,40,.13,14.54.28,26.06,10.91,28,25.56,1.12,8.28.06,16.29-4.13,23.66-5,8.77-12.26,13.62-22.73,13.44-14.48-.25-29-.11-43.45-.16A8.57,8.57,0,0,1,1734.06,1804.46Z"/><path class="cls-1" d="M1965.06,1805.22c0-3.69,0-6.5,0-9.3,0-16.15.07-32.3-.05-48.44,0-3.48.73-5.08,4.68-5,13,.22,26-.07,39,.13,14.89.24,26.51,10.78,28.47,25.64,1.17,8.83-.12,17.28-4.93,24.93-5,7.88-11.89,12.21-21.5,12.09-13.32-.17-26.64,0-40,0Z"/><path class="cls-1" d="M272.43,1817.79H219.7l26.77-66.56Z"/><path class="cls-1" d="M1209.09,1990.85c9.84,0,19.5-.71,29,.21,8.68.85,14.76,12.68,12.89,22.85s-7.81,15.25-18.25,15.3c-7.78,0-15.55,0-23.63,0Z"/><path class="cls-1" d="M1537.48,2025.47a36.77,36.77,0,0,1,7.26-22.77c11.83-16.18,33.16-16.59,45.71-1,11.62,14.46,10.44,38.29-2.55,51.37-12,12-30.58,11.32-41.49-1.68C1540.29,2044.13,1537.4,2035.63,1537.48,2025.47Z"/><path class="cls-1" d="M587,2028.84v-37.95c9.64,0,19.14-.78,28.44.23,8.85,1,14.68,13.19,12.37,23.58-2.2,9.91-7.77,14.46-17.86,14.51-7,0-14,0-21,0A15.18,15.18,0,0,1,587,2028.84Z"/><path class="cls-1" d="M1700.14,1995.9l15.41,39.9H1683l15.93-40.08Z"/><path class="cls-1" d="M851.49,1994.31l16.08,41.53H835Z"/></svg>