<svg id="Layer_0_Image" data-name="Layer 0 Image" xmlns="http://www.w3.org/2000/svg" viewBox="0 0 2221 930"><defs><style>.cls-1{fill:#fff;}</style></defs><title>elements</title><path class="cls-1" d="M126,806V131H2097V806Zm1.09-673.91c0,3,0,5.31,0,7.6q0,118.24.08,236.48.08,211.23.13,422.47c0,3.71,0,6.13,5.09,6.12,77.49-.2,155-.18,232.48-.38a9.21,9.21,0,0,0,6.14-3c12.44-14.53,24.68-29.24,36.93-43.94,2.64-3.17,5.11-6.5,7.65-9.75l-.89-1.34H186.06V190.73h6.41l528-.17c7.57,0,7.59,0,7.6,7.65,0,34.83.16,69.66,0,104.49,0,4.6,1.41,6,6,5.94,14.83-.27,29.66-.12,44.49-.13,6.92,0,6.93,0,6.93-6.76q0-80.74.09-161.49c0-7.85,0-7.85-7.76-7.86l-644-.31ZM957.6,628c0-2.58,0-4.71,0-6.84,0-41.16-.28-82.32.19-123.47.32-28.17,19.4-44.85,47.49-42.7,15.2,1.16,27.44,10.3,31.67,24.92a78.79,78.79,0,0,1,2.82,21.15c.26,40.16.12,80.31.13,120.47v6.32h57.94c0-2.32,0-4.29,0-6.25,0-41-.08-82,0-123,.08-28.09,19.23-45.66,47.23-43.64,15.75,1.14,27.87,10.49,31.91,25.8A81.38,81.38,0,0,1,1179.3,501c.2,40.32.1,80.65.1,121,0,1.93,0,3.86,0,5.93h56.3c.12-1.07.28-1.87.28-2.66,0-49.16.24-98.31-.27-147.47-.18-17.27-5.21-33.6-16-47.5-15.21-19.56-36.05-27.64-60.2-28.39-23.43-.73-44.62,4.93-61.34,22.45-4.22,4.42-7.88,9.38-12,14.36-13.41-25.9-35.88-36.57-63.86-36.72-27.61-.15-50.82,9.53-67.55,34.34V408.32H899.46V628Zm-648.47-.17h197.8V571.12H369.69V495.77H479.45V441.92H369.75V367H506.93V310.37H309.12ZM1491.39,532.9c2.45-15.27,1.33-29.69-1.6-43.92-6.56-31.8-22.12-57.68-50.95-74.14-21.28-12.15-44.39-15.57-68.53-12.8-34.89,4-63,19.73-80.68,50.45-21.33,37.05-23,76.37-7.85,116,11.22,29.31,32.76,48.87,62.29,59.47,19.82,7.11,40.24,8.42,61.07,6.1a96.18,96.18,0,0,0,82.48-70,45.92,45.92,0,0,0,.74-4.68c-15.15,0-29.79.27-44.42-.13-6.1-.17-11,.37-13.73,6.72-.68,1.6-2.31,2.81-3.54,4.17-20.11,22.23-74.69,23.23-91.76-18.19-2.42-5.88-3.88-12.15-6-19ZM861.07,533c.34-2.68.89-4.66.8-6.61-.57-11.78-.15-23.75-2.18-35.29-5.79-32.9-21.78-59.54-51.49-76.43-21.13-12-44.1-15.37-68.07-12.63-35.68,4.08-64.05,20.4-81.76,52-19.73,35.24-21.5,72.67-8.42,110.52,10.25,29.65,30.8,50.15,59.87,61.92,18.4,7.45,37.68,9.32,57.35,8.37,42.22-2,76.83-28.56,89.49-68.74.63-2,1-4.09,1.46-6.17a8.91,8.91,0,0,0-1.89-.56c-16.49,0-33-.14-49.48.07-1.49,0-3.42,1.7-4.36,3.12a47.27,47.27,0,0,1-18.78,16.76c-12.28,6-25.2,6.79-38.51,4.74-24.34-3.76-44.56-26.3-45.36-51.12Zm727.45,95v-6.49q0-47.49,0-95c0-10-.28-20,.3-30,1.58-27.48,20.59-43.79,47.93-41.55,16.47,1.35,29,11.22,33.2,27.21a84.69,84.69,0,0,1,2.35,20.72c.21,39.65.1,79.31.1,119,0,1.95,0,3.89,0,6h58.5v-6.16q0-63.73,0-127.46a193.71,193.71,0,0,0-.93-19.94c-3.29-31.18-19.8-67.66-69.89-71.71-29.17-2.36-54.36,6.09-71.53,31.72a13,13,0,0,1-1.74,1.51V408.36h-56.32V628Zm458.94-154c13.89-4.65,27.23-9.32,40.72-13.53,4-1.24,4.34-3.22,3.41-6.59-3.43-12.43-10.32-22.65-19.94-31.07-16-14-35.15-19.86-55.89-21.28-24.33-1.66-46.6,3.91-65.8,19.61-35.32,28.87-36.08,89.49,15.87,110.75,8.56,3.5,17.73,5.59,26.69,8.06,11.37,3.13,23,5.37,34.15,9.15,8.63,2.93,13.93,9.52,13.66,19.39-.25,9-5.66,16.37-15.07,19.71-18.09,6.42-48.44,1.64-59.61-25.66-.48-1.18-1.07-2.31-1.79-3.86l-43.4,13.17a9.75,9.75,0,0,0-.27,1.86,17.69,17.69,0,0,0,.42,2.45c4.72,20.57,17,35.41,35,45.86,13,7.6,27.34,11.26,42.26,12.51,20.72,1.74,41.09.24,59.79-9.77,25.8-13.82,39.31-35.53,38.25-65-1-27.68-16.8-45.62-41.09-56.39-9.48-4.2-19.87-6.47-30-9.1-9.33-2.42-18.89-4-28.26-6.22-13-3.14-19.91-12.4-17.54-23.71,1.94-9.28,8.66-14.4,17.15-17.17,16.44-5.36,42.83,0,50.19,24.2C2046.56,472.07,2047,472.8,2047.45,473.93ZM1755.39,459.8h36.88v6.49c0,30.15,0,60.31,0,90.46a145,145,0,0,0,.84,17.95c3.28,25.69,16.37,43.89,41.36,52.49,16,5.51,32.46,5.13,48.87,2.35,11.61-2,11.56-2.25,11.56-14.07v-37c-5,.46-9.43,1-13.9,1.27-22.1,1.22-30.69-6.82-30.76-28.92-.08-28.49,0-57,0-85.47,0-1.76.18-3.52.29-5.65,11.35,0,22.17-.11,33,.07,3,0,4.39-1,5.45-3.72,5.64-14.76,11.48-29.44,17.22-44.16.44-1.13.65-2.35,1.12-4.06h-57.11V342.23h-54.53V408.3h-40.29ZM547.32,310.37V627.72h57.51V310.37Z"/><path d="M127.09,132.09h6.8l644,.31c7.77,0,7.77,0,7.76,7.86q0,80.74-.09,161.49c0,6.76,0,6.76-6.93,6.76-14.83,0-29.67-.15-44.49.13-4.61.09-6-1.33-6-5.94.11-34.83,0-69.66,0-104.49,0-7.65,0-7.65-7.6-7.65l-528,.17h-6.41V746.37H414.7l.89,1.34c-2.55,3.25-5,6.58-7.65,9.75-12.25,14.7-24.49,29.41-36.93,43.94a9.21,9.21,0,0,1-6.14,3c-77.49.2-155,.17-232.48.38-5.08,0-5.09-2.41-5.09-6.12q0-211.23-.13-422.47,0-118.24-.08-236.48C127.09,137.4,127.09,135.1,127.09,132.09Z"/><path d="M957.6,628H899.46V408.32h55.25v27.93c16.73-24.81,39.94-34.49,67.55-34.34,28,.15,50.45,10.82,63.86,36.72,4.14-5,7.8-9.93,12-14.36,16.72-17.51,37.91-23.18,61.34-22.45,24.15.75,45,8.84,60.2,28.39,10.81,13.9,15.84,30.22,16,47.5.51,49.15.24,98.31.27,147.47,0,.79-.16,1.59-.28,2.66h-56.3c0-2.06,0-4,0-5.93,0-40.32.1-80.65-.1-121a81.38,81.38,0,0,0-2.29-20.23c-4-15.3-16.16-24.66-31.91-25.8-28-2-47.15,15.55-47.23,43.64-.12,41,0,82,0,123,0,2,0,3.93,0,6.25H1039.9v-6.32c0-40.16.13-80.32-.13-120.47a78.79,78.79,0,0,0-2.82-21.15c-4.23-14.63-16.47-23.76-31.67-24.92-28.09-2.15-47.18,14.53-47.49,42.7-.47,41.15-.16,82.31-.19,123.47C957.6,623.25,957.6,625.38,957.6,628Z"/><path d="M309.12,627.78V310.37h197.8V367H369.75v74.93h109.7v53.86H369.69v75.34H506.92v56.67Z"/><path d="M1491.39,532.9H1328.89c2.15,6.85,3.61,13.13,6,19,17.07,41.42,71.64,40.42,91.76,18.19,1.23-1.36,2.86-2.57,3.54-4.17,2.69-6.35,7.63-6.89,13.73-6.72,14.63.4,29.27.13,44.42.13a45.92,45.92,0,0,1-.74,4.68,96.18,96.18,0,0,1-82.48,70c-20.82,2.32-41.25,1-61.07-6.1-29.53-10.6-51.07-30.16-62.29-59.47-15.16-39.6-13.48-78.92,7.85-116,17.69-30.73,45.79-46.45,80.68-50.45,24.14-2.77,47.25.65,68.53,12.8,28.83,16.46,44.39,42.34,50.95,74.14C1492.72,503.21,1493.84,517.62,1491.39,532.9Zm-160.22-39.84h101.62c-3.17-22.53-19.65-44.43-50-44.45S1334.82,468.29,1331.17,493.06Z"/><path d="M861.07,533H699.73c.81,24.82,21,47.36,45.36,51.12,13.3,2.06,26.23,1.31,38.51-4.74a47.27,47.27,0,0,0,18.78-16.76c.94-1.43,2.87-3.1,4.36-3.12,16.49-.2,33-.11,49.48-.07a8.91,8.91,0,0,1,1.89.56c-.48,2.08-.83,4.17-1.46,6.17-12.67,40.18-47.27,66.71-89.49,68.74-19.68.95-39-.92-57.35-8.37-29.07-11.77-49.62-32.27-59.87-61.92-13.08-37.85-11.3-75.27,8.42-110.52,17.71-31.64,46.08-48,81.76-52,24-2.74,46.94.62,68.07,12.63,29.71,16.88,45.7,43.52,51.49,76.43,2,11.54,1.61,23.51,2.18,35.29C862,528.31,861.41,530.29,861.07,533Zm-58.75-39.89c-1.63-26.35-24.21-45.17-52.82-44.3-26,.79-48.37,21.15-48.36,44.3Z"/><path d="M1588.51,628h-58.07V408.36h56.32v27.46a13,13,0,0,0,1.74-1.51c17.17-25.63,42.36-34.08,71.53-31.72,50.09,4.05,66.6,40.53,69.89,71.71a193.71,193.71,0,0,1,.93,19.94q.12,63.73,0,127.46v6.16h-58.5c0-2.12,0-4.06,0-6,0-39.66.11-79.31-.1-119a84.69,84.69,0,0,0-2.35-20.72c-4.17-16-16.73-25.87-33.2-27.21-27.34-2.24-46.35,14.07-47.93,41.55-.57,10-.29,20-.3,30q0,47.49,0,95Z"/><path d="M2047.45,473.93c-.49-1.13-.89-1.86-1.13-2.63-7.36-24.18-33.75-29.56-50.19-24.2-8.49,2.77-15.2,7.89-17.15,17.17-2.37,11.32,4.51,20.57,17.54,23.71,9.37,2.26,18.93,3.8,28.26,6.22,10.11,2.63,20.5,4.89,30,9.1,24.29,10.77,40.1,28.71,41.09,56.39,1.06,29.48-12.45,51.2-38.25,65-18.69,10-39.07,11.5-59.79,9.77-14.91-1.25-29.21-4.91-42.26-12.51-17.94-10.46-30.24-25.29-35-45.86a17.69,17.69,0,0,1-.42-2.45,9.75,9.75,0,0,1,.27-1.86l43.4-13.17c.72,1.55,1.31,2.68,1.79,3.86,11.18,27.3,41.52,32.08,59.61,25.66,9.4-3.33,14.82-10.69,15.07-19.71.27-9.86-5-16.46-13.66-19.39-11.14-3.78-22.79-6-34.15-9.15-9-2.47-18.12-4.55-26.69-8.06-51.95-21.26-51.2-81.88-15.87-110.75,19.2-15.69,41.47-21.27,65.8-19.61,20.75,1.42,39.9,7.3,55.89,21.28,9.63,8.42,16.51,18.63,19.94,31.07.93,3.37.58,5.34-3.41,6.59C2074.69,464.6,2061.34,469.27,2047.45,473.93Z"/><path d="M1755.39,459.8V408.3h40.29V342.23h54.53v65.63h57.11c-.46,1.71-.68,2.93-1.12,4.06-5.74,14.72-11.58,29.4-17.22,44.16-1.06,2.76-2.46,3.77-5.45,3.72-10.81-.18-21.62-.07-33-.07-.12,2.13-.29,3.89-.29,5.65,0,28.49-.07,57,0,85.47.06,22.11,8.66,30.15,30.76,28.92,4.47-.25,8.92-.81,13.9-1.27v37c0,11.83,0,12.11-11.56,14.07-16.41,2.77-32.85,3.16-48.87-2.35-25-8.6-38.08-26.79-41.36-52.49a145,145,0,0,1-.84-17.95c-.08-30.15,0-60.31,0-90.46V459.8Z"/><path d="M547.32,310.37h57.51V627.72H547.32Z"/><path class="cls-1" d="M1331.17,493.06c3.65-24.77,21.42-44.47,51.65-44.45s46.8,21.92,50,44.45Z"/><path class="cls-1" d="M802.31,493.08H701.13c0-23.16,22.37-43.52,48.36-44.3C778.1,447.91,800.68,466.73,802.31,493.08Z"/></svg>