<svg id="Layer_0_Image" data-name="Layer 0 Image" xmlns="http://www.w3.org/2000/svg" viewBox="0 0 2544 469"><defs><style>.cls-1{fill:#fff;}</style></defs><title>fyxer</title><path class="cls-1" d="M1960,25h226c.05,1.49.16,3,.16,4.48q0,207.49,0,415v6.44h32V275h6.45c41.83,0,83.66.1,125.49-.13,5.18,0,8.37,1.42,11.55,5.59,40.15,52.55,80.8,104.72,120.54,157.57,7.49,10,14.88,15.08,27.41,13.32,7.41-1,15.08-.19,23.71-.19L2393.73,270.43c13.59-3.6,26.82-6.26,39.47-10.6,47.18-16.16,82.33-51.27,84.17-107.18,1.16-35.42-10.35-65.83-36.92-89.74-22.67-20.39-50.2-30.22-79.84-34.89-7.83-1.23-15.73-2-23.6-3h157q0,213.45,0,427h-4.89q-1247.8,0-2495.6,0a21.7,21.7,0,0,1-4.5-1H61.56V258.44H301.91V229h-240V54.8H329V25H507a49,49,0,0,0,2.64,4.72Q597.75,154,685.8,278.4a18.49,18.49,0,0,1,3.22,10c.2,52.16.14,104.32.14,156.48v6H721v-6.13q0-79,.1-158a14.25,14.25,0,0,1,2.34-7.76Q812,154.12,900.79,29.35A32.06,32.06,0,0,0,903,25h167c1.23,1.94,2.3,4,3.7,5.8q66.73,85.49,133.52,170.93c8.39,10.74,16.75,21.49,25.24,32.38l-169,217.06c11.56,0,22-.17,32.41.09,3.74.09,6-1.09,8.31-4.06q60.11-78.6,120.44-157c8.89-11.58,17.79-23.15,26.91-35,1.36,1.71,2.41,3,3.42,4.29q71.7,93,143.31,186.1c3.13,4.08,6.18,6.06,11.49,5.76,8.8-.51,17.66-.12,26.49-.16a39.62,39.62,0,0,0,4.08-.47c-1.15-1.58-1.88-2.66-2.69-3.69Q1356,342.43,1274.18,237.92c-2.26-2.89-2.41-4.62-.07-7.59Q1327.16,163,1380,95.49q27.58-35.2,55-70.49h222V450.76h305.6V421.84H1689.28V250.95h243.2V221.73H1689.23v-167H1960Z"/><path d="M2377,25c7.87,1,15.77,1.8,23.6,3,29.64,4.67,57.18,14.5,79.84,34.89,26.57,23.9,38.09,54.32,36.92,89.74-1.84,55.9-37,91-84.17,107.18-12.66,4.33-25.88,7-39.47,10.6l139.61,180.74c-8.62,0-16.3-.85-23.71.19-12.53,1.76-19.91-3.35-27.41-13.32-39.73-52.86-80.39-105-120.54-157.57-3.18-4.16-6.37-5.61-11.55-5.59-41.83.23-83.66.13-125.49.13h-6.45V450.9h-32v-6.44q0-207.49,0-415c0-1.49-.1-3-.16-4.48ZM2218.39,246h6.52q70.23,0,140.45,0c18.28,0,36.21-2.7,53.39-9,38.07-14,63-38.92,66.56-81.26,3.18-38-14.22-69.05-48.36-86.05-19.89-9.9-41.25-14.31-63.23-14.52-50.48-.49-101-.25-151.44-.28a35.65,35.65,0,0,0-3.9.42Z"/><path d="M1960,25V54.73H1689.23v167h243.25v29.22h-243.2v170.9H1962.6v28.92H1657V25Z"/><path class="cls-1" d="M547,25H865a31.71,31.71,0,0,1-2,3.84Q792.82,129.3,722.57,229.73c-5.51,7.88-11,15.73-16.78,23.89-1.17-1.51-2-2.51-2.76-3.58Q626.24,139.88,549.49,29.69A42.91,42.91,0,0,1,547,25Z"/><path d="M1435,25q-27.52,35.25-55,70.49Q1327.1,163,1274.11,230.34c-2.34,3-2.19,4.7.07,7.59Q1356,342.38,1437.64,447c.8,1,1.54,2.11,2.69,3.69a39.62,39.62,0,0,1-4.08.47c-8.83,0-17.69-.35-26.49.16-5.31.31-8.36-1.68-11.49-5.76q-71.5-93.17-143.31-186.1c-1-1.31-2.05-2.58-3.42-4.29-9.12,11.86-18,23.43-26.91,35q-60.26,78.49-120.44,157c-2.27,3-4.57,4.16-8.31,4.06-10.42-.26-20.85-.09-32.41-.09l169-217.06c-8.49-10.89-16.86-21.64-25.24-32.38Q1140.46,116.27,1073.7,30.8c-1.4-1.8-2.48-3.86-3.7-5.8h38a42,42,0,0,0,2.51,4.13q55.72,72.13,111.5,144.22c10.14,13.11,20.32,26.21,30.67,39.55,1.15-1.33,2.06-2.28,2.86-3.31q64-83.09,128-166.22c4.63-6,9-12.25,13.51-18.38Z"/><path d="M329,25V54.8H61.87V229h240v29.47H61.56V451H29V25Z"/><path class="cls-1" d="M1397,25c-4.5,6.13-8.88,12.35-13.51,18.38q-63.93,83.14-128,166.22c-.8,1-1.71,2-2.86,3.31-10.35-13.34-20.52-26.43-30.67-39.55q-55.77-72.1-111.5-144.22A42,42,0,0,1,1108,25Z"/><path d="M547,25a42.91,42.91,0,0,0,2.49,4.69Q626.23,139.89,703,250c.75,1.07,1.59,2.07,2.76,3.58,5.74-8.16,11.27-16,16.78-23.89Q792.81,129.29,863,28.84A31.71,31.71,0,0,0,865,25h38a32.06,32.06,0,0,1-2.21,4.35Q812.1,154.18,723.44,279a14.25,14.25,0,0,0-2.34,7.76q-.2,79-.1,158v6.13H689.16v-6c0-52.16.06-104.32-.14-156.48a18.49,18.49,0,0,0-3.22-10Q597.86,154,509.64,29.72A49,49,0,0,1,507,25Z"/><path class="cls-1" d="M2218.39,246V55.28a35.65,35.65,0,0,1,3.9-.42c50.48,0,101-.21,151.44.28,22,.21,43.34,4.62,63.23,14.52,34.14,17,51.54,48,48.36,86.05-3.54,42.34-28.48,67.28-66.56,81.26-17.19,6.31-35.11,9-53.39,9q-70.23.09-140.45,0Z"/></svg>