<svg id="kontor_Image" data-name="kontor Image" xmlns="http://www.w3.org/2000/svg" viewBox="0 0 538 81"><defs><style>.cls-1{fill:#fff;}</style></defs><title>kontor</title><path class="cls-1" d="M1,82Q1,41.5,1,1H539q0,40.5,0,81ZM280.37,21.73c9.21,0,18,.3,26.77-.12,5-.24,6.09,1.54,6,6.22-.27,15.47.06,31-.2,46.43-.07,4.52,1.89,5.19,5.67,5.15,3.6,0,5.35-.71,5.29-5-.25-15.64-.11-31.29-.09-46.93,0-1.77.15-3.54.26-5.79h24.48V11.63H280.37ZM201.32,3.27a11.61,11.61,0,0,0-.55,2.28c0,23.3,0,46.6-.1,69.9,0,4.08,2.68,3.84,5.42,3.89s5.3-.12,5.25-4.08c-.12-9.65,0-19.31,0-29,0-1.64.26-3.29.41-4.93C218.94,51.77,225,62.25,231,72.74c4.17,7.26,6.54,8.17,15.25,5.75C243.55,70.08,204.82,4.77,201.32,3.27Zm278,9.69c4.83,0,9-.09,13.14,0,6.65.18,13.33.15,19.92.88,5.6.62,10,3.62,11.91,9.3,3.33,9.76-2.78,18.67-14.1,20-5.6.64-11.31.36-17,.58a45.24,45.24,0,0,0-4.68.65l.19,1.2c7,0,14,.57,20.88-.14,9.78-1,16-6.35,17.18-13.46,2-11.85-5.12-20.39-17.57-20.71-8.16-.21-16.33.07-24.49-.18-1.28,0-2.5-1.71-3.75-2.63,1.15-1,2.3-2.92,3.46-2.93,10.16-.07,20.35-.3,30.46.5,10.64.83,17.92,8.38,19.3,18.5,1.63,12-2.38,19-13.48,23.67A30.52,30.52,0,0,0,518,49.72l18.07,29.52,1.68-1L521.38,50.73c1.08-.68,1.48-1,1.91-1.19C534,44,538.28,36,536.58,24.79c-1.77-11.67-8.75-19-20.44-20.61-6.07-.83-12.27-.8-18.42-.95s-12.2,0-18.36,0ZM151.11,10.08c-5.73,7.27-5.65,7.21-.62,13.57,5.19,6.55,7.63,14,6.09,22.35-3.19,17.44-18.71,27.51-35.88,23.08-3.14-.81-4.57-.07-5.76,2.59-.8,1.77-1.88,3.41-2.83,5.1,16,9.28,38.92,2.52,49.48-14.25C172.57,45.08,167.92,21.26,151.11,10.08ZM422.75,76.59C419,68,419,68,412.07,69.29,392.13,73,374.55,55.7,379,35.87c1.44-6.45,5.85-12.23,8.9-18.32l1.51.4-5-8.4c-16.43,9.91-21.7,34-11.57,51.42S406.14,85.78,422.75,76.59ZM110.07,65.64c5.31-6.58,5.31-6.58,1.06-13.67-7-11.58-.5-27.14,12.69-29.85,3.77-.77,7.83-.12,12.08-.12l4.52-8.31a30.33,30.33,0,0,0-39.44,14C94.23,41.14,98.6,59.31,110.07,65.64ZM56.12,6.05c-1.86,2.06-3.24,3.67-4.7,5.2C41.87,21.24,32.9,31.9,22.55,41,12.88,49.45,8.62,59,10.64,71.51c.36,2.25.35,4.57.51,6.85l1.57-.1c0-6.56-.21-13.13.12-19.68a11,11,0,0,1,2.55-6.51c12-12.74,24.16-25.26,36.26-37.88C54.88,10.82,58,7.34,61.2,3.85c-9.49-2.41-16.52,0-21.83,7.58-2,2.83-4.77,5.1-7.09,7.71-3,3.38-5.94,6.84-8.91,10.27L21.5,28.2V3.81l-1.25,0v30c.56-.08.78,0,.86-.13,8-8.26,16-16.43,23.8-24.87C47.87,5.63,51,4.64,56.12,6.05ZM38.73,37.49l-1.34.86c.69,1.39,1.31,2.83,2.09,4.17,5.86,10.07,11.77,20.11,17.65,30.17,4.2,7.2,7.55,8.4,16.64,5.61C73,76.82,72.31,75.35,71.48,74Q62.56,59.25,53.58,44.54C46.07,32.22,46.11,32.25,56,22.06c5.82-6,11.52-12.12,17.27-18.19l-.77-1A14.33,14.33,0,0,0,69.43,4.8c-7.76,8-15.36,16.2-23.22,24.11-2.55,2.57-2.2,4.43-.44,7.24,7.34,11.7,14.44,23.56,21.61,35.37,1,1.6,1.81,3.29,2.78,5.07-5.63,1.68-8.62-.08-11.08-4.62-5.63-10.38-11.8-20.48-17.77-30.67C40.54,40,39.59,38.75,38.73,37.49ZM406.92,19.12A22.26,22.26,0,0,0,384.3,41c-.3,12,10.42,22.86,22.49,22.74A22.27,22.27,0,0,0,428.9,41.33,21.7,21.7,0,0,0,406.92,19.12Zm-151.51,60,1.29-.27a28.27,28.27,0,0,0,.6-4.11c0-22.3-.07-44.61.11-66.91,0-4.43-2.14-4.58-5.53-4.71-3.79-.14-5.32.9-5.28,5,.17,17.81-.09,35.62.16,53.42C246.86,68.62,252,73.48,255.41,79.09Zm-16-26.93V3.39h-28.1ZM472.55,76.59c-.73-24.23.37-48.56-.58-72.82l-1.78,0q0,2.43,0,4.85c0,21.8.11,43.6-.1,65.4,0,4.22,1.25,5.47,5.35,5.39,3.83-.07,5.67-.79,5.6-5.24-.24-16.8-.09-33.61-.11-50.42a38.89,38.89,0,0,0-.42-4.05,7.84,7.84,0,0,0-1.46,5.1c0,15.81-.12,31.62.05,47.42C479.16,76.63,477.57,78,472.55,76.59ZM428,72.18c7.19-.73,15.5-13,17.55-24.79,2.93-16.87-6.56-34.54-22.46-41.82-11-5-27.48-4.47-32.63,1.68C411.27.62,428.65,4.6,439.21,24,449.2,42.3,443.45,58.5,428,72.18ZM144.22,7.23C137,.66,119.56,1.32,109,7.52c-13.7,8-21.88,24.28-19.53,39.26,1.94,12.35,9.87,24.48,18,26.14C91,58.18,85.67,41.13,97.1,22.34,107.91,4.56,124.8,1.16,144.22,7.23ZM32.81,44.37C29,47.86,25.48,50.67,22.59,54a13.53,13.53,0,0,0-2.8,7c-.45,4.11.14,8.33-.19,12.47-.39,4.76,1.68,6.07,6.1,5.87,6-.27,12-.07,18-.07h9.75ZM424.31,65c8.73-3.75,14-15.36,12.87-26.89a30.24,30.24,0,0,0-22.26-26.5c-7.73-2.06-17.21-.8-20,3.19,15-4.68,27.7-1.8,35.94,11.49C439.69,40.53,435.54,53.49,424.31,65Zm92.61,14.28c-4.67-7.79-9.19-14.2-12.49-21.19-2.84-6-7.06-7.05-12.82-6.47-2.66.27-3.94,1.18-3.91,3.92.06,6.66-.16,13.32.18,20,.07,1.31,2.11,3.55,3.32,3.6C499.29,79.43,507.43,79.28,516.91,79.28ZM500.07,19.21C487.58,19,487.58,19,487.67,31.72c0,1.16-.3,2.5.17,3.44.55,1.1,1.77,2.6,2.73,2.63a170.08,170.08,0,0,0,19.4-.23c5.61-.51,8.11-4.28,7.83-10.13-.24-5-3.16-7.8-8.77-8.19C506.05,19,503.05,19.21,500.07,19.21ZM2.22,78.26l1,0V3.79h-1Zm190.16-.08h.88V3.88h-.88ZM121,61.62c11.92,5.86,24.6-2,28.2-11.9,3.5-9.57-.1-22-8.47-24.76,7.56,8.32,10.48,17,5.17,26.43C140.47,61,131.45,63.14,121,61.62ZM348.22,4.81v-1H280.8v1ZM304.67,78.26h1.07V28.78h-1.07ZM12.27,3.84l-1,0v39h1Zm498.1,47.71-1.07.71c2,6.31,14.46,25.21,18.16,26.38Z"/><path d="M280.37,21.73V11.63h68.18v10.1H324.07c-.1,2.24-.26,4-.26,5.79,0,15.65-.16,31.29.09,46.93.07,4.25-1.69,4.93-5.29,5-3.78,0-5.74-.64-5.67-5.15.25-15.47-.07-31,.2-46.43.08-4.67-1-6.46-6-6.22C298.38,22,289.58,21.73,280.37,21.73Zm34.41-7.91c-8.16,0-16.33-.22-24.47.13-2.65.11-7.6-2.33-7.58,2.58,0,4.43,4.75,2.14,7.29,2.27,6.81.36,13.65.29,20.47.06,3.77-.13,4.92,1.31,4.86,4.95-.18,9.82-.06,19.65-.05,29.47,0,6.49-.14,13,.14,19.48.06,1.33,1.7,2.59,2.62,3.88,1-1.32,2.37-2.51,3-4,.49-1.12.11-2.62.11-4,0-14.82.12-29.64-.07-44.46-.05-4.15,1.31-5.64,5.45-5.38a111.21,111.21,0,0,0,14,0c2.11-.13,5.9,1.72,5.92-2.3,0-4.28-3.94-2.57-6.2-2.63C331.77,13.7,323.27,13.82,314.78,13.82Z"/><path d="M201.32,3.27c3.5,1.5,42.23,66.81,45,75.23C237.57,80.91,235.2,80,231,72.74c-6-10.49-12.09-21-19.27-31.37-.14,1.64-.4,3.29-.41,4.93,0,9.65-.12,19.31,0,29,0,4-2.36,4.13-5.25,4.08s-5.43.2-5.42-3.89c.07-23.3.06-46.6.1-69.9A11.61,11.61,0,0,1,201.32,3.27Zm2.75,5.37-1,.36V76.72h6.22V31.23c1.59,2.5,2.49,3.8,3.28,5.17,7.08,12.23,14.29,24.39,21.12,36.77,2.22,4,4.89,4.82,9.55,3.29Z"/><path d="M479.36,13V3.2c6.17,0,12.27-.11,18.36,0s12.35.11,18.42.95c11.69,1.6,18.67,8.94,20.44,20.61C538.28,36,534,44,523.29,49.54c-.43.22-.83.51-1.91,1.19l16.39,27.51-1.68,1L518,49.72a30.52,30.52,0,0,1,2.76-1.54c11.1-4.68,15.1-11.69,13.48-23.67C532.88,14.39,525.59,6.84,515,6c-10.11-.79-20.31-.57-30.46-.5-1.16,0-2.31,1.91-3.46,2.93,1.25.92,2.47,2.59,3.75,2.63,8.16.25,16.33,0,24.49.18,12.45.32,19.58,8.86,17.57,20.71-1.21,7.1-7.4,12.44-17.18,13.46-6.89.71-13.91.14-20.88.14l-.19-1.2a45.24,45.24,0,0,1,4.68-.65c5.66-.22,11.36.07,17-.58,11.33-1.3,17.43-10.21,14.1-20-1.94-5.68-6.31-8.68-11.91-9.3-6.59-.72-13.28-.69-19.92-.88C488.35,12.86,484.19,13,479.36,13Z"/><path d="M151.11,10.08c16.81,11.19,21.46,35,10.48,52.44C151,79.29,128.08,86,112.12,76.77c.95-1.69,2-3.33,2.83-5.1,1.2-2.65,2.62-3.4,5.76-2.59,17.17,4.43,32.7-5.65,35.88-23.08,1.53-8.37-.9-15.8-6.09-22.35C145.45,17.29,145.38,17.34,151.11,10.08Zm.74,4.38c-2.82,3.31-2.82,3.31-.64,6,9.21,11.37,10.81,25.16,4.25,36.68C148.77,68.86,136.56,74.38,121.76,72c-3.5-.57-4.92.43-5.32,3.65,14.37,7.54,35.27-.47,44.31-16.82C169,44,164.59,22.11,151.85,14.45Z"/><path d="M422.75,76.59C406.14,85.78,383,78.41,372.84,61S368,19.48,384.41,9.56l5,8.4-1.51-.4c-3,6.09-7.46,11.87-8.9,18.32C374.55,55.7,392.13,73,412.07,69.29,419,68,419,68,422.75,76.59ZM383.6,13.2c-13.43,7.53-18,29.86-9.38,45.82,8.8,16.26,30.65,24.25,45.2,16.45-.71-3.66-2.17-5.14-6.49-4.16a30.57,30.57,0,0,1-29.47-49.9C386.13,18.36,387,16,383.6,13.2Z"/><path d="M110.07,65.64c-11.47-6.33-15.83-24.5-9.1-37.9a30.33,30.33,0,0,1,39.44-14L135.89,22c-4.25,0-8.31-.66-12.08.12C110.63,24.83,104.17,40.39,111.12,52,115.38,59.06,115.38,59.06,110.07,65.64Zm-.82-4.12c2.74-1.92,2.65-3.87.78-6.62-5.49-8-6-16.55-1-24.95s12.58-11.63,22-10.78c3.55.32,4.72-1.18,4.94-4.26-12.3-4.13-26.12,1.71-32.41,13.48C97.44,39.86,99.86,54.18,109.25,61.52Z"/><path d="M56.12,6.05C51,4.64,47.87,5.63,44.91,8.85c-7.78,8.43-15.84,16.6-23.8,24.87-.09.09-.31.05-.86.13v-30l1.25,0V28.2l1.87,1.21c3-3.43,5.89-6.89,8.91-10.27,2.33-2.61,5.1-4.88,7.09-7.71,5.31-7.54,12.34-10,21.83-7.58-3.22,3.49-6.32,7-9.55,10.33C39.56,26.8,27.36,39.32,15.4,52.07a11,11,0,0,0-2.55,6.51c-.33,6.54-.12,13.12-.12,19.68l-1.57.1c-.16-2.29-.15-4.6-.51-6.85C8.62,59,12.88,49.45,22.55,41,32.9,31.9,41.87,21.24,51.42,11.25,52.89,9.72,54.27,8.11,56.12,6.05Z"/><path d="M38.73,37.49c.87,1.27,1.81,2.49,2.59,3.81,6,10.2,12.14,20.29,17.77,30.67,2.47,4.54,5.45,6.3,11.08,4.62-1-1.78-1.81-3.47-2.78-5.07C60.22,59.71,53.12,47.85,45.78,36.15c-1.76-2.8-2.11-4.67.44-7.24C54.08,21,61.67,12.82,69.43,4.8a14.33,14.33,0,0,1,3.07-1.88l.77,1C67.52,9.94,61.83,16.06,56,22.06c-9.9,10.19-9.93,10.16-2.43,22.48q9,14.72,17.91,29.44c.83,1.37,1.5,2.84,2.27,4.32-9.08,2.78-12.44,1.58-16.64-5.61-5.87-10.06-11.78-20.1-17.65-30.17-.78-1.34-1.39-2.78-2.09-4.17Z"/><path d="M406.92,19.12a21.7,21.7,0,0,1,22,22.21,22.27,22.27,0,0,1-22.11,22.38C394.72,63.82,384,53,384.3,41A22.26,22.26,0,0,1,406.92,19.12Zm-.08,41.79c10.72-.05,19.83-9.13,19.8-19.74,0-10.3-9.73-19.94-20-19.82a20.21,20.21,0,0,0-19.59,20A19.55,19.55,0,0,0,406.83,60.91Z"/><path d="M255.41,79.09c-3.39-5.61-8.55-10.47-8.65-17.61-.25-17.81,0-35.62-.16-53.42,0-4.06,1.48-5.09,5.28-5,3.39.12,5.57.28,5.53,4.71-.19,22.3-.07,44.6-.11,66.91a28.27,28.27,0,0,1-.6,4.11Zm-.49-7.65q0-11,0-21.94c0-13.16,0-26.32,0-39.48,0-2.84-.83-4.92-3.92-3.78-1,.38-1.84,2.86-1.85,4.39-.13,15.66.13,31.32-.2,47C248.85,63.18,250.89,67.48,254.92,71.44Z"/><path d="M239.38,52.16,211.29,3.39h28.1ZM215.8,6l20.62,36,1.21-.42c0-10.94.06-21.88-.1-32.81,0-.93-1.41-2.6-2.21-2.63C229.24,5.86,223.15,6,215.8,6Z"/><path d="M472.55,76.59c5,1.45,6.6,0,6.56-4.34-.17-15.81-.07-31.62-.05-47.42a7.84,7.84,0,0,1,1.46-5.1,38.89,38.89,0,0,1,.42,4.05c0,16.81-.12,33.62.11,50.42.06,4.44-1.77,5.17-5.6,5.24-4.1.07-5.39-1.17-5.35-5.39.21-21.8.1-43.6.1-65.4q0-2.43,0-4.85l1.78,0C472.92,28,471.83,52.36,472.55,76.59Z"/><path d="M428,72.18C443.45,58.5,449.2,42.3,439.21,24,428.65,4.6,411.27.62,390.44,7.25c5.14-6.15,21.65-6.71,32.63-1.68,15.9,7.28,25.39,25,22.46,41.82C443.47,59.23,435.16,71.45,428,72.18Z"/><path d="M144.22,7.23C124.8,1.16,107.91,4.56,97.1,22.34,85.67,41.13,91,58.18,107.38,72.91c-8.08-1.65-16-13.79-18-26.14-2.35-15,5.83-31.25,19.53-39.26C119.56,1.32,137,.66,144.22,7.23Z"/><path d="M32.81,44.37l20.62,35H43.68c-6,0-12-.21-18,.07-4.41.2-6.48-1.11-6.1-5.87.34-4.14-.25-8.36.19-12.47a13.53,13.53,0,0,1,2.8-7C25.48,50.67,29,47.86,32.81,44.37Zm16,32.25L31.53,47.42c-3.66,4.81-7.62,8.19-9.08,12.43s-.45,9.22-.24,13.88c0,1,1.27,2.75,2,2.77C31.93,76.7,39.68,76.62,48.82,76.62Z"/><path d="M424.31,65c11.23-11.51,15.38-24.47,6.54-38.72C422.61,13,409.93,10.11,394.91,14.79c2.8-4,12.28-5.25,20-3.19a30.24,30.24,0,0,1,22.26,26.5C438.31,49.64,433,61.25,424.31,65Z"/><path d="M516.91,79.28c-9.49,0-17.62.15-25.73-.17-1.2,0-3.25-2.29-3.32-3.6-.34-6.64-.12-13.31-.18-20,0-2.74,1.25-3.65,3.91-3.92,5.76-.59,10,.47,12.82,6.47C507.72,65.08,512.24,71.49,516.91,79.28Zm-4.61-2.57c-4.61-7.67-8.24-14.39-12.64-20.56-1.08-1.51-4.74-1.69-7.14-1.5-.87.07-2.07,2.95-2.18,4.61a85.88,85.88,0,0,0,.06,13.46c.13,1.41,1.93,3.74,3.09,3.82C499.27,76.92,505.08,76.71,512.31,76.71Z"/><path d="M500.07,19.21c3,0,6-.17,9,0,5.61.39,8.53,3.22,8.77,8.19.28,5.86-2.22,9.62-7.83,10.13a170.08,170.08,0,0,1-19.4.23c-1,0-2.18-1.53-2.73-2.63-.47-.94-.16-2.28-.17-3.44C487.58,19,487.58,19,500.07,19.21Zm.66,1.77c-11.38.31-11.47.4-10.46,11.05,0,.49-.07,1.1.17,1.46.51.76,1.24,2,1.84,2,6.42-.21,12.91-.18,19.18-1.3,1.69-.3,3.81-4.29,3.75-6.53-.06-1.9-2.65-4.56-4.72-5.36C507.51,21.12,504,21.34,500.72,21Z"/><path d="M2.22,78.26V3.81h1V78.25Z"/><path d="M192.38,78.19V3.89h.88v74.3Z"/><path d="M121,61.62c10.46,1.52,19.49-.58,24.9-10.23,5.31-9.47,2.4-18.11-5.17-26.43,8.37,2.77,12,15.19,8.47,24.76C145.59,59.58,132.91,67.48,121,61.62Z"/><path d="M348.22,4.81H280.81v-1h67.41Z"/><path d="M304.67,78.26V28.78h1.07V78.26Z"/><path d="M12.27,3.84v39h-1v-39Z"/><path d="M510.36,51.55l17.09,27.08c-3.7-1.17-16.19-20.07-18.16-26.38Z"/><path class="cls-1" d="M314.78,13.82c8.49,0,17-.12,25.48.08,2.26.05,6.23-1.65,6.2,2.63,0,4-3.81,2.17-5.92,2.3a111.21,111.21,0,0,1-14,0c-4.14-.26-5.51,1.22-5.45,5.38.2,14.82.07,29.64.07,44.46,0,1.33.38,2.83-.11,4-.65,1.49-2,2.68-3,4-.91-1.29-2.56-2.55-2.62-3.88-.28-6.48-.14-13-.14-19.48,0-9.83-.12-19.65.05-29.47.07-3.64-1.09-5.07-4.86-4.95-6.82.23-13.67.3-20.47-.06-2.53-.13-7.27,2.16-7.29-2.27,0-4.91,4.93-2.47,7.58-2.58C298.45,13.6,306.62,13.82,314.78,13.82Z"/><path class="cls-1" d="M204.07,8.64l39.15,67.81c-4.66,1.53-7.33.74-9.55-3.29-6.83-12.37-14-24.53-21.12-36.77-.79-1.37-1.69-2.67-3.28-5.17V76.72h-6.22V9Z"/><path class="cls-1" d="M151.85,14.45C164.59,22.11,169,44,160.76,58.81c-9,16.35-29.94,24.37-44.31,16.82.39-3.22,1.81-4.22,5.32-3.65,14.8,2.4,27-3.13,33.69-14.86,6.56-11.52,5-25.31-4.25-36.68C149,17.76,149,17.76,151.85,14.45Z"/><path class="cls-1" d="M383.6,13.2c3.43,2.81,2.53,5.15-.15,8.2a30.57,30.57,0,0,0,29.47,49.9c4.33-1,5.78.5,6.49,4.16-14.54,7.81-36.4-.18-45.2-16.45C365.58,43.07,370.17,20.74,383.6,13.2Z"/><path class="cls-1" d="M109.25,61.52c-9.39-7.34-11.81-21.66-5.67-33.13,6.3-11.76,20.11-17.6,32.41-13.48-.22,3.08-1.39,4.58-4.94,4.26-9.43-.84-17.12,2.5-22,10.78s-4.49,16.92,1,24.95C111.9,57.65,112,59.6,109.25,61.52Z"/><path class="cls-1" d="M406.83,60.91a19.55,19.55,0,0,1-19.74-19.56,20.21,20.21,0,0,1,19.59-20c10.23-.12,19.94,9.51,20,19.82C426.67,51.78,417.56,60.86,406.83,60.91Z"/><path class="cls-1" d="M254.92,71.44c-4-4-6.07-8.26-6-13.84.33-15.65.07-31.32.2-47,0-1.53.81-4,1.85-4.39,3.09-1.14,3.93.94,3.92,3.78-.06,13.16,0,26.32,0,39.48Q254.92,60.46,254.92,71.44Z"/><path class="cls-1" d="M215.8,6c7.35,0,13.44-.1,19.52.12.8,0,2.2,1.7,2.21,2.63.16,10.94.1,21.88.1,32.81l-1.21.42Z"/><path class="cls-1" d="M48.82,76.62c-9.15,0-16.89.08-24.63-.13-.71,0-1.94-1.78-2-2.77C22,69.07,21,64,22.45,59.85s5.42-7.62,9.08-12.43Z"/><path class="cls-1" d="M512.31,76.71c-7.23,0-13,.21-18.81-.18-1.16-.08-3-2.4-3.09-3.82a85.88,85.88,0,0,1-.06-13.46c.11-1.66,1.3-4.54,2.18-4.61,2.4-.19,6.06,0,7.14,1.5C504.07,62.31,507.7,69,512.31,76.71Z"/><path class="cls-1" d="M500.72,21c3.28.37,6.79.15,9.76,1.31,2.06.8,4.66,3.46,4.72,5.36.07,2.24-2.05,6.23-3.75,6.53-6.28,1.12-12.77,1.08-19.18,1.3-.6,0-1.32-1.22-1.84-2-.24-.36-.12-1-.17-1.46C489.25,21.37,489.34,21.28,500.72,21Z"/></svg>