<svg id="Layer_1" data-name="Layer 1" xmlns="http://www.w3.org/2000/svg" viewBox="0 0 442.15 67.82"><defs><style>.cls-1{fill:#303533;}</style></defs><title>multiple</title><path class="cls-1" d="M63.86,1a1.13,1.13,0,0,0-1.16.26L32.41,32.38,1.84,1.22A1.12,1.12,0,0,0,.68,1a1,1,0,0,0-.68.9V66.09a1,1,0,0,0,.68.9,1.15,1.15,0,0,0,.37.06,1.1,1.1,0,0,0,.79-.32L32.42,35.27,62.7,66.13a1.12,1.12,0,0,0,1.16.26,1,1,0,0,0,.68-.9V1.86A1,1,0,0,0,63.86,1ZM2.11,63.55V4.38L31,33.83ZM62.43,63,33.83,33.82,62.43,4.4Z"/><path class="cls-1" d="M318.88,5a19.47,19.47,0,0,0-6.74-3.06A30.93,30.93,0,0,0,304.78,1H286.43V66.7a1.06,1.06,0,0,0,2.1,0v-27H306a22.29,22.29,0,0,0,7.6-1.29,18.19,18.19,0,0,0,6.26-3.76,17.72,17.72,0,0,0,4.25-6.18,21.66,21.66,0,0,0,1.58-8.54,19.55,19.55,0,0,0-1.91-9.13A16.21,16.21,0,0,0,318.88,5Zm3.2,23a15.76,15.76,0,0,1-4,5.53,15.44,15.44,0,0,1-5.64,3.12,21.43,21.43,0,0,1-6.31,1H288.53V3h17.11a24.48,24.48,0,0,1,6.36.86,16.84,16.84,0,0,1,5.78,2.79A14.42,14.42,0,0,1,322,11.84a17.81,17.81,0,0,1,1.63,8.06A19.6,19.6,0,0,1,322.08,28Z"/><path class="cls-1" d="M135.36,1.89v0a1,1,0,0,0-1.92,0V41.38a46,46,0,0,1-.79,8.29,21.84,21.84,0,0,1-3.15,8,18.11,18.11,0,0,1-6.6,6Q118.66,66,111.75,66q-7.08,0-11.32-2.45a18.45,18.45,0,0,1-6.56-6.11,21.66,21.66,0,0,1-3.06-8,47.66,47.66,0,0,1-.74-8.11V1.86a1,1,0,0,0-1.92,0V41.74a40.69,40.69,0,0,0,1.22,10.19,22,22,0,0,0,4,8.29,19.24,19.24,0,0,0,7.3,5.57,26.77,26.77,0,0,0,11.06,2,26.77,26.77,0,0,0,11.06-2,19.26,19.26,0,0,0,7.3-5.57,22,22,0,0,0,4-8.29,40.75,40.75,0,0,0,1.22-10.19Z"/><path class="cls-1" d="M259.68,1.89h0a1,1,0,0,0-1.92,0V66a1,1,0,0,0,1.92,0V1.89Z"/><path class="cls-1" d="M237.87.79H192.61a.91.91,0,0,0-.84.93.92.92,0,0,0,.84.93h21.64V66.58a1,1,0,0,0,1,.87,1,1,0,0,0,1-.86V2.64h21.65a.91.91,0,0,0,.81-.93A.92.92,0,0,0,237.87.79Z"/><path class="cls-1" d="M442.15,66.13a.92.92,0,0,0-.81-.93H401.76V33.67h35.78a.94.94,0,0,0,0-1.87H401.76V2.7h38a.92.92,0,0,0,.88-.94.92.92,0,0,0-.88-.94H399.62V67.07h41.71A.92.92,0,0,0,442.15,66.13Z"/><path class="cls-1" d="M377.89,65.17H346.12V.88a1,1,0,0,0-2,0V67H377.9a.94.94,0,0,0,0-1.87Z"/><path class="cls-1" d="M191.65,65.57H160.18V1.89a1,1,0,0,0-2,0V67.42h33.43a.93.93,0,0,0,0-1.85Z"/></svg>