<svg id="reed-smith_Image" data-name="reed-smith Image" xmlns="http://www.w3.org/2000/svg" viewBox="0 0 1079 192.47"><defs><style>.cls-1{fill:#fff;}</style></defs><title>reed-smit</title><path d="M0,182H16.79V11.07H1.16L.86,5.24a21.52,21.52,0,0,1,2.73-.38c26.66,0,53.33,0,80,.22A61.76,61.76,0,0,1,111.45,12a40.72,40.72,0,0,1,6.69,68.71C108.25,88.51,96.81,92,84.39,92.85l-7.14.48c1.56,2.41,2.66,4.2,3.84,5.94C98.42,124.73,115.9,150.1,133,175.73c3.22,4.83,6.48,7.58,12.39,6.48a32.43,32.43,0,0,1,5.42,0l.45,5.67H146c-10.33,0-20.67-.16-31,.09-3.74.09-6-1-8.11-4.21-19.39-28.9-39-57.66-58.54-86.45-.82-1.2-1.73-2.34-3.17-4.27v89H62.78l.44,6H0ZM45.53,10.31V89c12.33.19,24.32.87,36-3,12-4,20.29-11.74,22.52-24.34A86.12,86.12,0,0,0,105,39.44C103.62,24,95,14.37,79.71,12.2,68.59,10.61,57.19,10.88,45.53,10.31Z"/><path d="M1079,188l-45.93-.43c-2.13,0-4.27,0-6.62,0v-5h15.34a13.19,13.19,0,0,0,.58-2.43q-.07-50.73-.18-101.46a7.26,7.26,0,0,0-.06-1c-1.07-7.54-2.16-15.1-10.78-18.1-7.75-2.7-17.69.33-23.44,7.24-7.22,8.68-10.44,19.21-10.9,30-1.15,27.27-1.32,54.57-1.94,81.86-.06,2.8,1,3.88,3.81,3.79,4.47-.15,8.94,0,13.68,0l.26,4.71H959.45l-.29-4.68h12.58V10.69H958.5l-.43-5.21h36.73v67l1.16.32,2.27-3.42c13.11-19.87,33.79-23.19,53.34-12.91,10.69,5.63,13,16.56,13.18,27.46.41,29.65.21,59.31.34,89,0,11.11-1.51,9.39,9.46,9.54A40.3,40.3,0,0,0,1079,182Z"/><path d="M561,0c6.64,1.38,13.36,2.47,19.9,4.22a159,159,0,0,1,16.92,5.9c1.24.49,2.82,2.2,2.83,3.37.2,14.49.14,29,.13,43.48,0,1.47-.13,2.94-.2,4.4-3.95,1.31-5.81.31-6.83-3.83a273.86,273.86,0,0,0-7.93-27.79C578.2,8.63,566.06,5.32,546,5.37a42.2,42.2,0,0,0-30.17,12.52C503,30.59,503.91,49.46,517.92,60.82c10.46,8.48,23.43,11.56,35.58,16.47,12,4.84,24.35,9.32,35.26,16.06,31.14,19.24,28.47,63,1.8,82.84-19.16,14.28-40.71,17.78-63.47,13-10.59-2.22-20.69-6.89-30.86-10.84a7,7,0,0,1-3.62-5.15c-.26-17.32-.14-34.65-.11-52a7,7,0,0,1,.37-1.54c3.59-1.43,5.07-.3,6.13,3.57,3.4,12.49,6.64,25.1,11.22,37.18,4.69,12.37,13.23,21.8,27.09,24.07,13.17,2.15,26,.36,37.49-6.87,19.73-12.44,22.08-43.6,3.84-58.14-7.38-5.88-16.54-9.71-25.26-13.68-11.48-5.23-23.56-9.18-35-14.58-19.36-9.16-29.78-24.16-27.28-46.33C493.45,24.4,506,12.09,524.41,5.09c6-2.27,12.38-3.42,18.59-5.09Z"/><path d="M655.69,182.44c3.81,0,7.64-.2,11.42.12,1.19.1,2.27,1.58,3.4,2.43-1.13.85-2.24,2.44-3.38,2.45q-22.74.25-45.48,0c-1.06,0-2.11-1.73-3.16-2.66,1-.78,2-2,3.12-2.24,3.2-.55,8.23.48,9.32-1.2,1.71-2.64,1-7,1-10.62q.06-52.48,0-105c0-7.18,0-7.18-7.35-7.19H618.4V53.41h36.46V70.79c15.65-29.68,58.06-27.54,69.66,1.78,1.1-1.73,2-3.21,3-4.66,13.65-20.32,35.92-23,55.79-11.85,10.18,5.71,12.4,16.18,12.51,26.78.33,30.32.22,60.64.3,91,0,10.27-.69,8.46,8.4,8.65,1.31,0,2.62.18,4,.29.82,2.7,1.16,4.83-2.59,4.83-16,0-32,0-48.12,0-1.23-3.41-.92-5.3,3.1-5.14,3.62.14,7.25,0,11,0a13.32,13.32,0,0,0,.52-2.37c0-34.15.07-68.31-.27-102.46C772,64.8,766,58.36,755.64,57.77c-9.45-.54-16.45,3.39-21.39,11.16-6.67,10.48-8.54,22.29-8.61,34.4-.16,25.32-.05,50.65,0,76,0,.8.17,1.61.32,3h13.58l.23,4.43c-.63.3-1.05.67-1.48.68-15.83.07-31.65.15-47.48,0-1.1,0-2.18-1.66-3.27-2.55,1.17-.81,2.28-2.22,3.51-2.33,3.59-.32,7.22-.11,11.1-.11.15-1.72.32-2.84.32-4q-.09-49-.23-98a31.72,31.72,0,0,0-.33-5C700.62,68,699.12,60.65,690,58.39c-9.44-2.34-19.39.76-25.1,8.25-6,7.86-8.53,17.21-8.79,26.65-.8,29.12-.79,58.27-1.08,87.41A8.44,8.44,0,0,0,655.69,182.44Z"/><path d="M463.16,5.11v177H475.7v5.49H440.13V169c-1.61,2-2.35,2.79-2.9,3.67C423,195.28,398,199,377.77,181.33c-13.81-12.11-20.37-28.12-23.26-45.79-3.6-22-.13-42.79,11.83-61.82a53.63,53.63,0,0,1,22.6-20.57c16.51-7.81,33.49-3.6,44.4,11.11,2,2.75,3.8,5.7,6.21,9.35V11H424.36V5.11ZM381,121.86h0c0,6.49-.43,13,.09,19.45.91,11.3,2.44,22.59,8.84,32.4,9.19,14.08,28.38,15,38.38,1.5a49.1,49.1,0,0,0,7.61-16.08c5.62-20.73,5.19-41.84,2.49-63-1.28-10-3.63-19.69-9.54-28.09C418,52.65,397.62,54,389,70.66c-1.74,3.38-3.52,7-4.13,10.65C382.67,94.73,380.84,107.75,381,121.86Z"/><path d="M229.1,137.37h5.8c-.1,13.58-3.83,25.71-12.06,36.27-16.74,21.47-47,24.06-68.17,5.52-19.39-17-25.07-39.36-23.26-64.11,1.15-15.67,5.71-30.37,14.75-43.44,15.25-22.05,41.27-29.39,62.46-17.66,17.66,9.77,28.71,32.06,25.86,53H157.62c-.14,18.58-1.19,36.59,4.57,54,4.28,12.94,12.12,22,26.65,23.6,10.66,1.14,19.24-2.83,26.17-10.59C224.15,163.68,227.84,151.21,229.1,137.37Zm-20.5-36.81c-.38-7.53-.38-14.81-1.24-22a40.32,40.32,0,0,0-3.71-12.33c-6-12.6-20.18-15.52-30.84-6.5-12.7,10.74-13.44,25.77-15,40.82Z"/><path d="M340.34,137.41h5.85c-.29,17.32-5.84,32.13-18.94,43.44-20.08,17.33-51.34,13-69-9.57-16-20.37-18.46-43.68-13.75-68.22,2.94-15.34,9.16-29.31,20.52-40.34,26.93-26.15,67.88-14.93,78.69,21.68,2.07,7,2.22,14.58,3.35,22.54H269c-.21,19.23-1.34,38.06,5.31,56.13,4.56,12.38,13,20.47,26.69,21.54,12.55,1,21.72-5,28.69-14.86C336.37,160.24,339.46,149.47,340.34,137.41Zm-20.58-36.85c0-11.41.49-22.4-3.92-32.79-4.9-11.54-15.24-16.11-25.93-11.56-6.42,2.73-10.69,7.72-14,13.7-5.2,9.48-5.32,20.05-7.06,30.65Z"/><path d="M889.21,58.6H873.5l-.44-5.38H889V24.88h22.09c0,7.9.17,15.53-.07,23.16-.12,3.84,1,5.31,5.05,5.16,8.45-.3,16.92-.09,25.67-.09v5.32H912.2a16.56,16.56,0,0,0-.59,2.85c0,33.64.07,67.28.29,100.92a35.6,35.6,0,0,0,2,10.22c1.72,5.47,4.66,10.07,11.08,10.76,7.19.77,13.28-1.8,16-8.44a63.22,63.22,0,0,0,4-17.79c.65-6.58.15-13.28.15-20,3.43-1.37,5.08-.81,5,3.1-.16,8.32.18,16.67-.22,25-.74,15.3-10.88,25.27-26.22,25.88A62.66,62.66,0,0,1,910.8,190c-10.46-1.77-17-8.28-19.41-18.37a89.94,89.94,0,0,1-2.18-19.75c-.19-29.14,0-58.29,0-87.44C889.21,62.64,889.21,60.86,889.21,58.6Z"/><path d="M816.48,58.56V53.34h36.91V182.4h11.89c1.43,3.64.75,5.21-2.91,5.19-14.49-.08-29,0-43.47-.14-1.15,0-2.27-1.58-3.41-2.42,1.12-.86,2.18-2.35,3.37-2.46,3.42-.34,6.9-.12,11.06-.12,0-2.74,0-4.86,0-7q0-55,0-109.93c0-7,0-7-7.06-7Z"/><path d="M838.76,7.11C847.23,7,853.9,13.31,854,21.47a14.51,14.51,0,0,1-14.7,14.92c-7.87.1-14.8-6.62-14.87-14.4S831,7.19,838.76,7.11Z"/><path class="cls-1" d="M45.53,10.31c11.67.57,23.06.3,34.18,1.89C95,14.37,103.62,24,105,39.44A86.12,86.12,0,0,1,104,61.69C101.78,74.29,93.49,82.05,81.49,86c-11.65,3.87-23.63,3.19-36,3Z"/><path class="cls-1" d="M381,121.86c1.89-13.47,1.65-27.13,3.85-40.55.6-3.68,2.38-7.28,4.13-10.65,8.62-16.7,29-18,39.9-2.57,5.91,8.4,8.26,18.13,9.54,28.09,2.7,21.11,3.13,42.22-2.49,63a49.1,49.1,0,0,1-7.61,16.08c-10,13.51-29.19,12.58-38.38-1.5-6.4-9.81-7.93-21.09-8.84-32.4-.52-6.44-.09-13-.09-19.45Z"/><path class="cls-1" d="M208.61,100.56H157.82c1.56-15.05,2.3-30.08,15-40.82,10.67-9,24.83-6.11,30.84,6.5a40.32,40.32,0,0,1,3.71,12.33C208.22,85.75,208.23,93,208.61,100.56Z"/><path class="cls-1" d="M319.76,100.56H268.87c1.74-10.59,1.86-21.17,7.06-30.65,3.28-6,7.55-11,14-13.7,10.7-4.55,21,0,25.93,11.56C320.25,78.16,319.72,89.15,319.76,100.56Z"/></svg>