<svg id="runway-east_Image" data-name="runway-east Image" xmlns="http://www.w3.org/2000/svg" viewBox="0 0 2598 508"><defs><style>.cls-1{fill:#fefefe;}.cls-2{fill:#a2a2a2;}.cls-3{fill:#2a2a2a;}</style></defs><title>runway-east</title><path class="cls-1" d="M1300,509q-647.25,0-1294.5.09c-3.75,0-4.6-.84-4.59-4.59q.16-249.5,0-499C.9,1.75,1.75.91,5.5.91q1294.5.14,2589,0c3.75,0,4.6.84,4.59,4.59q-.16,249.5,0,499c0,3.75-.84,4.6-4.59,4.59Q1947.25,508.94,1300,509Z"/><path class="cls-2" d="M607.32,128.66c5.76,3.16,9.58,7.61,13.88,11.4q54.88,48.44,109.56,97.09,20,17.73,40.1,35.36c1,.91,2,2.91,3.59,2,1.38-.78.72-2.75.73-4.19q0-63.22,0-126.44c0-7.94,0-7.95,7.92-7.95,13.66,0,27.32.11,41-.07,4.14-.06,5.93,1,5.93,5.55q-.17,124.69-.11,249.39c0,1.38.77,3.4-1,4-1.54.52-2.57-1.23-3.66-2.19q-92.09-81.4-184.17-162.82c-10-8.82-20-17.66-30.06-26.35a10.74,10.74,0,0,1-4.13-9c.17-20.16.07-40.31.09-60.47C607,132.37,607.19,130.78,607.32,128.66Z"/><path class="cls-2" d="M965.39,395.84c-1.71-.89-1.84-2.71-2.45-4.18-7.82-18.94-15.52-37.92-23.41-56.82a10.51,10.51,0,0,1,.28-9.46q43.88-90.62,87.56-181.33c1.81-3.75,3.53-7.54,5.38-11.27.56-1.13.79-2.91,2.38-2.88s1.8,1.78,2.35,2.92q11.81,24.26,23.55,48.56,32.34,67.06,64.66,134.13c7.08,14.66,7.07,14.59.81,29.57-6.35,15.21-12.51,30.51-18.84,45.74-.66,1.58-.67,4.28-2.79,4.22-1.92,0-2.22-2.65-3-4.23q-31.74-65.41-63.45-130.83c-.88-1.82-1.13-4.93-3.53-4.82-1.93.09-2.14,3.07-3,4.82q-32,65.86-63.86,131.74C967.35,393.15,967,394.88,965.39,395.84Z"/><path class="cls-2" d="M1403.64,388.83c-8.16,0-16.33-.17-24.49.07-4,.12-6.39-1.28-8.17-5-5.36-11.1-11.18-22-16.54-33.08-1.69-3.49-3.85-4.81-7.72-4.78-21.32.15-42.65.09-64,.06-5.87,0-6.08-.32-3.49-5.44,7.29-14.42,14.72-28.77,21.91-43.24,1.54-3.1,3.47-4.55,7-4.33s7,.08,10.49,0c5.44-.07,5.74-.51,3.3-5.27q-9.93-19.34-20-38.63c-10.6-20.4-21.16-40.82-31.91-61.14a8.82,8.82,0,0,1,0-9.28c8.68-16.33,17.1-32.79,25.68-49.17.72-1.37.9-3.7,2.91-3.54,1.53.12,1.84,2.19,2.51,3.49q36.89,71.5,73.75,143,28.3,54.85,56.67,109.66c3.22,6.24,3,6.5-4,6.52C1419.63,388.85,1411.64,388.83,1403.64,388.83Z"/><path class="cls-3" d="M1977.49,346.23c6.65-13.15,12.77-25.32,19-37.44,2.57-5,4.19-11.41,8.27-14.55s10.62-1,16.06-.84c4.91.1,4.2-1.6,2.51-4.83C2005.83,255,1988.52,221.46,1971,188c-1.76-3.36-1.71-5.85,0-9.15,8.61-16.16,16.95-32.47,25.39-48.71.83-1.6,1.75-3.16,2.67-4.83,1.77,1.05,2.13,2.74,2.84,4.13q65.45,126.68,130.85,253.38c3,5.89,3,5.9-3.67,5.91-16.5,0-33-.15-49.49.11-4,.06-5.91-1.36-7.58-4.78-5.54-11.37-11.49-22.54-17.05-33.91-1.45-3-3.19-4-6.51-4-21.33.16-42.66.08-64,.08Z"/><path class="cls-2" d="M1471.9,322.84c0-19.66,0-39.32,0-59a14,14,0,0,1,2.71-8.82q42.19-57.67,84.23-115.46a7.85,7.85,0,0,1,7-3.72c19,.12,38,0,57,.08,1.44,0,3.38-.62,4.16.83,1,1.76-.91,3-1.83,4.28q-47.5,65.25-95.14,130.4a19.53,19.53,0,0,0-4,12.4c.14,32.82,0,65.64.17,98.45,0,4.95-1.28,6.74-6.44,6.63-14-.31-28-.26-42,0-4.66.08-6-1.6-5.94-6.1C1472,362.82,1471.9,342.83,1471.9,322.84Z"/><path class="cls-2" d="M406,215.17q0,35,0,70a108.94,108.94,0,0,0,1.7,16.87c2.55,16.22,11.6,27.4,26.7,33.44,4.54,1.82,5.82,4.35,5.73,9-.26,14.32-.07,28.65-.11,43,0,5.77-.47,6.14-6,4.93-37.41-8.14-76.6-39.65-81.2-87.94-.88-9.29-1.67-18.56-1.67-27.89q0-66.71,0-133.41c0-7.11,0-7.12,7.23-7.12q20.24,0,40.47,0c7,0,7.05,0,7.05,7.29q0,36,0,72Z"/><path class="cls-2" d="M559,216.77c0,24.16.37,48.32-.11,72.47-.47,23.63-5.89,45.89-21.17,64.8-16.21,20.07-37,32.65-62.09,38.43-4.28,1-5.71-.19-5.66-4.55q.23-22.74,0-45.48c0-3.44,1.34-5,4.41-6.2,19.63-7.46,28.26-22.6,29.69-42.78.84-11.81.82-23.63.81-35.45q0-57.48,0-115c0-7.1,0-7.11,7.27-7.12,13.66,0,27.33.14,41-.08,4.51-.07,6.09,1.31,6.05,6-.19,25-.09,50-.09,75Z"/><path class="cls-2" d="M119,262.15q0-59.73,0-119.45c0-6.73,0-6.76,6.54-6.77,14.16,0,28.32.13,42.48-.09,4.36-.07,5.79,1.37,5.79,5.73q-.14,120.7,0,241.41c0,4.71-1.81,6-6.22,5.92-14.16-.19-28.32-.24-42.48,0-4.86.09-6.22-1.57-6.2-6.32C119.08,342.46,119,302.3,119,262.15Z"/><path class="cls-3" d="M1714.84,262c0,40.3-.07,80.61.09,120.91,0,4.48-1.06,6-5.77,5.92-14.65-.3-29.31-.24-44,0-4,.06-5.06-1.22-5.05-5.12q.15-121.41,0-242.82c0-3.91,1.06-5.12,5-5.06q22.23.33,44.46,0c4.15-.07,5.31,1.12,5.3,5.29C1714.77,181.38,1714.84,221.68,1714.84,262Z"/><path class="cls-3" d="M2160.66,312.17c7.17,0,14.34.21,21.49-.09,3.71-.15,5.16,1.07,5.9,4.72,2.28,11.26,7.61,20.38,19.56,23.6,11.38,3.06,22,1.46,30.46-7.31,8.29-8.56,9.84-19,6.9-30.19-2.16-8.22-8.44-13-15.62-16.57-3.23-1.59-3.44-3-1.86-6,7-13.43,13.91-26.92,20.53-40.55,1.72-3.54,3.23-3.49,6.36-1.92,35,17.49,51.24,48.38,45.43,86.69-5.53,36.42-34,64.58-71,70.14-48,7.21-92.41-29.17-95.05-77.6-.23-4.18,1.05-5.13,4.9-5C2146,312.34,2153.33,312.17,2160.66,312.17Z"/><path class="cls-3" d="M2261,205c-7.67,0-15.34-.2-23,.08-3.81.14-5.41-.79-6.22-4.87-2.36-11.91-9.71-17.5-20.62-16.53-9.33.83-16.26,7.62-17.81,17.43A18.73,18.73,0,0,0,2205.22,222a94.92,94.92,0,0,0,12,3.39c2.26.56,3,1.24,1.79,3.66q-11,21.59-21.69,43.32c-1.06,2.14-2.05,2.77-4.6,2.11-35.47-9.15-55.53-37.54-53.73-76.31,1.53-32.95,28-62.1,61-67.19,47.21-7.28,84.08,21.32,88.93,68.84.43,4.18-.55,5.53-4.89,5.33C2276.33,204.74,2268.65,205,2261,205Z"/><path class="cls-2" d="M224.23,135.93a129.42,129.42,0,0,1,29.39,2.66c31.65,6.85,56.25,37.24,57.61,69.6,1.43,34-18.74,62.79-44.75,74.13-11.08,4.83-22.84,5.93-34.67,6.52-7.48.37-15,0-22.49.16-3.74.1-5.41-1-5.36-5.06.18-14.66.15-29.33,0-44,0-3.74,1.4-5,5-4.91,7.83.13,15.68.23,23.49-.14,10.06-.47,18.77-4,23.21-13.76,6.64-14.61-3.45-30-20.29-31-8.14-.49-16.33-.21-24.49-.36-6.44-.12-6.86-.55-6.87-6.79,0-13.83.1-27.67-.07-41.5,0-4,1.12-5.83,5.37-5.57S218,135.93,224.23,135.93Z"/><path class="cls-3" d="M2423.07,304.53c0,26.32-.09,52.64.09,79,0,4.12-1.1,5.38-5.28,5.31-14.66-.25-29.32-.2-44,0-3.72,0-5.23-.74-5.22-4.91q.21-79.71,0-159.42c0-3.78,1.15-4.79,4.83-4.75,15,.19,30,.21,45,0,3.89-.06,4.66,1.3,4.65,4.88C2423,251.22,2423.07,277.88,2423.07,304.53Z"/><path class="cls-3" d="M2395.5,135.89c26.83,0,53.66.07,80.49-.08,3.81,0,5.15.86,5.08,4.93q-.38,21.74,0,43.49c.06,3.89-1.27,4.68-4.87,4.67q-80.24-.15-160.48,0c-3.83,0-5.24-.95-5.18-5q.33-21.24,0-42.49c-.07-4.25.93-5.69,5.48-5.65C2342.5,136,2369,135.89,2395.5,135.89Z"/><path class="cls-2" d="M1251.51,216.22c2.23,4.11,4,7.12,5.53,10.21,7.63,15,15.17,30,22.85,45,1.33,2.59,1.57,4.77.17,7.48q-27.39,53.07-54.57,106.25c-1.29,2.53-2.95,3.7-5.84,3.69q-26-.11-52,0c-4.23,0-4.36-1.47-2.67-4.75q38.59-74.85,77.08-149.75C1245,228.63,1248,222.9,1251.51,216.22Z"/><path class="cls-3" d="M1952.3,216.8c1.51.69,1.79,2.1,2.37,3.24,8.79,17.19,17.49,34.44,26.37,51.59A7.12,7.12,0,0,1,1981,279q-27.26,52.82-54.26,105.77c-1.49,2.92-3.19,4.05-6.52,4-17.16-.17-34.33-.12-51.49,0-3.37,0-5-.1-2.92-4.21q42.73-82.77,85.23-165.66C1951.38,218.15,1951.88,217.48,1952.3,216.8Z"/><path class="cls-2" d="M886.88,135.93c8,0,16,.11,24-.05,3.27-.07,5.1,1,6.41,4.17q17.55,42.24,35.41,84.35a7.28,7.28,0,0,1-.26,6.63c-9.28,18.83-18.46,37.72-27.74,56.55-.6,1.22-.75,3.43-2.6,3.15-1.56-.24-1.67-2.3-2.22-3.65q-27.19-65.57-54.34-131.15c-2.23-5.39-4.36-10.82-6.73-16.15-1.3-2.93-.52-3.89,2.56-3.86C869.88,136,878.38,135.93,886.88,135.93Z"/><path class="cls-2" d="M1147.49,291.42C1140,276,1132.56,261,1125.18,245.89a29.13,29.13,0,0,0-2.15-4.5c-6.72-9.2-5.7-17.91-1-28.12,10.8-23.43,20.33-47.45,30.09-71.35,1.87-4.59,4.34-6.21,9.27-6.11,15.49.3,31,.21,46.47.05,4.27,0,4.75,1.26,3.21,5q-30.54,73.34-60.9,146.75C1149.68,288.78,1149.42,290.15,1147.49,291.42Z"/><path class="cls-2" d="M607.41,240.12c7.75,6.72,14.65,12.67,21.51,18.67,9.52,8.33,19,16.77,28.56,25a9.79,9.79,0,0,1,3.79,8.15q-.17,45.47,0,90.94c0,4.62-1.55,6.08-6.07,6-14.32-.21-28.65-.16-43,0-3.77,0-5.31-1.12-5.3-5.13q.16-69.71.08-139.41C607,243.36,607.19,242.39,607.41,240.12Z"/><path class="cls-3" d="M1795.38,388.71c-14.82,0-29.64-.09-44.46.07-3.69,0-5.32-.68-5.24-4.89.26-14.48.22-29,0-43.46-.05-3.81,1.2-4.74,4.85-4.73q45,.2,89.92,0c3.27,0,4.7.63,4.66,4.33q-.3,22.23,0,44.46c0,3.34-1.06,4.28-4.26,4.25C1825.69,388.63,1810.53,388.7,1795.38,388.71Z"/><path class="cls-3" d="M1795.07,288.93c-14.81,0-29.62-.09-44.43.07-3.51,0-5-.64-5-4.6.22-14.81.15-29.62,0-44.43,0-2.92.73-4.07,3.89-4.06q45.93.16,91.87,0c2.94,0,3.61,1.09,3.59,3.79-.1,15.14-.13,30.29,0,45.43,0,3.21-1.2,3.86-4.09,3.84C1825.69,288.87,1810.38,288.93,1795.07,288.93Z"/><path class="cls-3" d="M1795,188.83c-14.83,0-29.66-.11-44.48.08-3.68,0-4.9-1-4.85-4.76.2-14.66.15-29.32,0-44,0-3.13.75-4.36,4.15-4.35q45.48.17,91,0c3.21,0,4.3.86,4.26,4.18q-.24,22.24,0,44.48c0,3.62-1.23,4.44-4.6,4.41C1825.35,188.75,1810.18,188.83,1795,188.83Z"/><path class="cls-2" d="M1418.87,135.93c9.49,0,19,.05,28.46,0,2.7,0,4.69.67,6.33,3q15.11,21.71,30.48,43.25c1.87,2.61,1.77,4.6-.12,7.12q-14.42,19.14-28.59,38.46c-2.3,3.14-3.64,2.84-5.77-.19q-30.88-43.89-61.93-87.65c-.65-.92-1.84-1.87-1.36-3,.64-1.57,2.33-.92,3.55-.92C1399.57,135.9,1409.22,135.93,1418.87,135.93Z"/><path class="cls-2" d="M281.23,388.83c-8,0-16-.09-24,0-3.12,0-4.84-1.09-5.9-4.11q-12.12-34.42-24.5-68.75c-1.29-3.56-1.06-5,3.3-5.12,15.44-.42,30.54-2.82,44.64-9.53,3.35-1.6,4.66-.59,5.78,2.64q13.87,39.9,28,79.7c1.51,4.23.3,5.28-3.82,5.18C296.9,388.7,289.06,388.83,281.23,388.83Z"/></svg>