<?xml version="1.0" encoding="utf-8"?>
<!-- Generator: Adobe Illustrator 21.0.2, SVG Export Plug-In . SVG Version: 6.00 Build 0)  -->
<svg version="1.0" id="Layer_1" xmlns="http://www.w3.org/2000/svg" xmlns:xlink="http://www.w3.org/1999/xlink" x="0px" y="0px"
	 viewBox="0 0 1379.3 235.9" enable-background="new 0 0 1379.3 235.9" xml:space="preserve">
<path d="M1276.6,140c-0.6,0-11.1,0.1-16,0c-8.8-0.3-17.3-1.9-25.1-6c-15.5-8.2-24.7-21-27.7-38.1c-0.9-4.9-1-10.1-1-15.1
	c-0.1-10.3,0-20.6,0.3-30.9c0.3-10.7,4.2-20.1,10.7-28.5c7.5-9.6,17.1-16.3,29.1-19.2c5.6-1.4,11.3-1.6,17-1.7
	c19.7-0.1,96.4,0.1,115,0.1L1309,96.1c0,0,16.1-0.6,21.2-0.1c22.1,2.1,37.4,13.5,45.6,34c2.4,6.1,3.5,12.5,3.4,19
	c0,12.3,0,24.6-0.3,36.9c-0.2,9.3-3.4,17.7-8.6,25.3c-7.6,11.1-17.8,18.7-31,22.1c-5.4,1.4-11,1.7-16.6,1.7
	c-32.2,0-115.8-0.1-115.8-0.1S1253,171.7,1276.6,140"/>
<path d="M1000.8,0.2c0,0,114-0.4,114.4-0.2c7,0,14,0.3,20.7,2.2c18.6,5.3,34.2,22.8,37.2,41.9c0.3,2.1,0.5,4.2,0.5,6.3
	c0.2,10,0.4,19.9,0.4,29.9c0,5.3,0.1,10.7-1,16c-4.4,21.1-16.7,35.1-37.3,41.7c-0.4,0.1-0.7,0.2-1.2,0.4
	c13.2,32.1,39.7,96.6,39.7,96.6l-120.2-72.8l-53.2,72.8V0.2z"/>
<path d="M384.1,0.6h173.2c0,0,0.2,112.7,0.1,167.4c-0.1,33-21.7,59.9-53.5,66.2c-8.8,1.7-17.9,1.7-26.9,1.7
	c-12.5,0-25.1,0.1-37.4-1.3c-27.1-3.1-50.6-26.7-54.7-53.7c-0.6-4.2-1-8.6-1-12.9C383.7,119,384.1,0.6,384.1,0.6"/>
<path d="M794.2,0.8c0,0,61.9-0.6,88.8,0.3c37.5,1.2,70.3,27,80.7,63.2c2.3,8.1,3.4,16.8,3.6,25.3c0.5,18.7,0.2,37.5,0.1,56.2
	c-0.2,45.3-33.4,83-78.4,88c-13.5,1.5-27.2,1-40.9,1.1c-17.2,0.1-54-0.2-54-0.2V0.8z"/>
<path d="M178.4,62.7c0.6-29.1,24.7-56.3,53.9-60.8c6.8-1,13.7-1.2,20.5-1.3c13.1-0.1,26.2-0.2,39.2,0.5c28.8,1.6,55.1,26.4,58.8,55
	c0.5,3.9,0.8,7.9,0.8,11.8c0,15.8,0.7,82.9,0.7,100.7c0,32-21.5,58.4-52.9,64.8c-6.6,1.3-13.4,1.5-20.2,1.5
	c-13.2,0.1-26.4,0.1-39.6-0.4c-29.2-1.1-56.4-26.3-60-55.3c-0.6-4.8-0.9-9.6-1-14.5C178.7,149.3,178.1,81.2,178.4,62.7"/>
<polygon points="761.7,235 642.3,166.2 589.3,234.9 589.3,0.7 761.7,0.7 "/>
<polygon points="0,0.6 173,0.6 0,234.4 "/>
</svg>
