<svg id="Layer_1" data-name="Layer 1" xmlns="http://www.w3.org/2000/svg" viewBox="0 0 110.86 1088"><defs><style>.cls-1{fill:#fff;}.cls-2{fill:#0a0a0a;}</style></defs><title>triangle-gradient</title><rect class="cls-1" x="-11.75" y="-13.04" width="129.66" height="1118.04"/><polygon class="cls-2" points="55.43 1090 0 1058 0 1122 55.43 1090"/><polygon class="cls-2" points="1.62 995.88 1.62 1056.13 53.8 1026 1.62 995.88"/><polygon class="cls-2" points="3.25 933.75 3.25 990.25 52.18 962 3.25 933.75"/><polygon class="cls-2" points="4.87 871.63 4.87 924.38 50.55 898 4.87 871.63"/><polygon class="cls-2" points="6.5 809.5 6.5 858.5 48.93 834 6.5 809.5"/><polygon class="cls-2" points="8.12 747.38 8.12 792.63 47.31 770 8.12 747.38"/><polygon class="cls-2" points="9.74 685.25 9.74 726.75 45.68 706 9.74 685.25"/><polygon class="cls-2" points="11.37 623.13 11.37 660.88 44.06 642 11.37 623.13"/><polygon class="cls-2" points="12.99 561 12.99 595 42.44 578 12.99 561"/><polygon class="cls-2" points="14.61 498.88 14.61 529.13 40.81 514 14.61 498.88"/><polygon class="cls-2" points="16.24 436.75 16.24 463.25 39.19 450 16.24 436.75"/><polygon class="cls-2" points="17.86 374.63 17.86 397.38 37.56 386 17.86 374.63"/><polygon class="cls-2" points="19.49 312.5 19.49 331.5 35.94 322 19.49 312.5"/><polygon class="cls-2" points="21.11 250.38 21.11 265.63 34.32 258 21.11 250.38"/><polygon class="cls-2" points="22.73 188.25 22.73 199.75 32.69 194 22.73 188.25"/><polygon class="cls-2" points="24.36 126.13 24.36 133.88 31.07 130 24.36 126.13"/><polygon class="cls-2" points="29.45 66 25.98 64 25.98 68 29.45 66"/><polygon class="cls-2" points="0 1058 55.43 1026 55.43 1090 0 1058"/><polygon class="cls-2" points="53.8 963.88 53.8 1024.13 1.62 994 53.8 963.88"/><polygon class="cls-2" points="52.18 901.75 52.18 958.25 3.25 930 52.18 901.75"/><polygon class="cls-2" points="50.55 839.63 50.55 892.38 4.87 866 50.55 839.63"/><polygon class="cls-2" points="48.93 777.5 48.93 826.5 6.5 802 48.93 777.5"/><polygon class="cls-2" points="47.31 715.38 47.31 760.63 8.12 738 47.31 715.38"/><polygon class="cls-2" points="45.68 653.25 45.68 694.75 9.74 674 45.68 653.25"/><polygon class="cls-2" points="44.06 591.13 44.06 628.88 11.37 610 44.06 591.13"/><polygon class="cls-2" points="42.44 529 42.44 563 12.99 546 42.44 529"/><polygon class="cls-2" points="40.81 466.88 40.81 497.13 14.61 482 40.81 466.88"/><polygon class="cls-2" points="39.19 404.75 39.19 431.25 16.24 418 39.19 404.75"/><polygon class="cls-2" points="37.56 342.63 37.56 365.38 17.86 354 37.56 342.63"/><polygon class="cls-2" points="35.94 280.5 35.94 299.5 19.49 290 35.94 280.5"/><polygon class="cls-2" points="34.32 218.38 34.32 233.63 21.11 226 34.32 218.38"/><polygon class="cls-2" points="32.69 156.25 32.69 167.75 22.73 162 32.69 156.25"/><polygon class="cls-2" points="31.07 94.13 31.07 101.88 24.36 98 31.07 94.13"/><polygon class="cls-2" points="25.98 34 29.45 32 29.45 36 25.98 34"/><polygon class="cls-2" points="55.43 1090 110.85 1058 110.85 1122 55.43 1090"/><polygon class="cls-2" points="109.23 995.88 109.23 1056.13 57.05 1026 109.23 995.88"/><polygon class="cls-2" points="107.6 933.75 107.6 990.25 58.67 962 107.6 933.75"/><polygon class="cls-2" points="105.98 871.63 105.98 924.38 60.3 898 105.98 871.63"/><polygon class="cls-2" points="104.36 809.5 104.36 858.5 61.92 834 104.36 809.5"/><polygon class="cls-2" points="102.73 747.38 102.73 792.63 63.55 770 102.73 747.38"/><polygon class="cls-2" points="101.11 685.25 101.11 726.75 65.17 706 101.11 685.25"/><polygon class="cls-2" points="99.48 623.13 99.48 660.88 66.79 642 99.48 623.13"/><polygon class="cls-2" points="97.86 561 97.86 595 68.42 578 97.86 561"/><polygon class="cls-2" points="96.24 498.88 96.24 529.13 70.04 514 96.24 498.88"/><polygon class="cls-2" points="94.61 436.75 94.61 463.25 71.66 450 94.61 436.75"/><polygon class="cls-2" points="92.99 374.63 92.99 397.38 73.29 386 92.99 374.63"/><polygon class="cls-2" points="91.37 312.5 91.37 331.5 74.91 322 91.37 312.5"/><polygon class="cls-2" points="89.74 250.38 89.74 265.63 76.53 258 89.74 250.38"/><polygon class="cls-2" points="88.12 188.25 88.12 199.75 78.16 194 88.12 188.25"/><polygon class="cls-2" points="86.49 126.13 86.49 133.88 79.78 130 86.49 126.13"/><polygon class="cls-2" points="81.41 66 84.87 64 84.87 68 81.41 66"/><polygon class="cls-2" points="110.85 1058 55.43 1026 55.43 1090 110.85 1058"/><polygon class="cls-2" points="57.05 963.88 57.05 1024.13 109.23 994 57.05 963.88"/><polygon class="cls-2" points="58.67 901.75 58.67 958.25 107.6 930 58.67 901.75"/><polygon class="cls-2" points="60.3 839.63 60.3 892.38 105.98 866 60.3 839.63"/><polygon class="cls-2" points="61.92 777.5 61.92 826.5 104.36 802 61.92 777.5"/><polygon class="cls-2" points="63.55 715.38 63.55 760.63 102.73 738 63.55 715.38"/><polygon class="cls-2" points="65.17 653.25 65.17 694.75 101.11 674 65.17 653.25"/><polygon class="cls-2" points="66.79 591.13 66.79 628.88 99.48 610 66.79 591.13"/><polygon class="cls-2" points="68.42 529 68.42 563 97.86 546 68.42 529"/><polygon class="cls-2" points="70.04 466.88 70.04 497.13 96.24 482 70.04 466.88"/><polygon class="cls-2" points="71.66 404.75 71.66 431.25 94.61 418 71.66 404.75"/><polygon class="cls-2" points="73.29 342.63 73.29 365.38 92.99 354 73.29 342.63"/><polygon class="cls-2" points="74.91 280.5 74.91 299.5 91.37 290 74.91 280.5"/><polygon class="cls-2" points="76.53 218.38 76.53 233.63 89.74 226 76.53 218.38"/><polygon class="cls-2" points="78.16 156.25 78.16 167.75 88.12 162 78.16 156.25"/><polygon class="cls-2" points="79.78 94.13 79.78 101.88 86.49 98 79.78 94.13"/><polygon class="cls-2" points="84.87 34 81.41 32 81.41 36 84.87 34"/><rect class="cls-2" y="1058" width="110.85" height="64"/></svg>