<svg id="Layer_1" data-name="Layer 1" xmlns="http://www.w3.org/2000/svg" viewBox="0 0 378.82 512"><title>o</title><path d="M.24,135.71C1.44,72.09,54,12.7,117.55,2.87,132.25.6,147.34.18,162.25.11c28.44-.13,56.93-.43,85.3,1.18,62.77,3.57,119.8,57.56,128,120.1a202.58,202.58,0,0,1,1.66,25.73c.1,34.45,1.62,181.06,1.63,219.91,0,70-46.71,127.55-115.13,141.58-14.27,2.93-29.24,3.17-43.9,3.28-28.69.22-57.41.13-86.07-1C70.15,508.46,10.91,453.5,3.11,390.26A275.59,275.59,0,0,1,1,358.69c-.26-34-1.53-182.63-.77-223"/></svg>