<svg id="Layer_1" data-name="Layer 1" xmlns="http://www.w3.org/2000/svg" viewBox="0 0 375.47 512"><title>s</title><path d="M152,304.7c-1.36,0-24.13.28-34.71-.06-19.11-.62-37.63-4.08-54.71-13.13-33.7-17.87-53.75-45.87-60.38-83.13-1.92-10.8-2.07-22-2.14-33-.14-22.52,0-45.05.63-67.56.66-23.27,9.13-43.91,23.39-62.16,16.4-21,37.19-35.6,63.34-42C99.52.69,111.92.07,124.33,0,167.18-.09,334,.17,374.57.3L222.69,208.7s35-1.36,46-.3C316.81,213,350,237.95,368,282.71a109.57,109.57,0,0,1,7.47,41.57c-.1,26.86,0,53.73-.56,80.58-.39,20.27-7.32,38.65-18.74,55.27-16.61,24.18-38.75,40.91-67.51,48.17-11.84,3-24,3.67-36.17,3.68-70.12.07-252-.2-252-.2S41,456.08,83.62,397.71c24.46-33.47,49.65-67.81,68.37-93"/></svg>