<?xml version="1.0" encoding="UTF-8"?>
<svg width="264px" height="100px" viewBox="0 0 264 100" version="1.1" xmlns="http://www.w3.org/2000/svg" xmlns:xlink="http://www.w3.org/1999/xlink">
    <!-- Generator: Sketch 47.1 (45422) - http://www.bohemiancoding.com/sketch -->
    <title>MMS_Logo_Tavel_Club</title>
    <desc>Created with Sketch.</desc>
    <defs>
        <polygon id="path-1" points="1.1556551e-15 72.9998034 1.1556551e-15 0.436863167 53.4917763 0.436863167 53.4917763 72.9998034"></polygon>
    </defs>
    <g id="Design" stroke="none" stroke-width="1" fill="none" fill-rule="evenodd">
        <g id="Mr&amp;MrsSmith_Navigation_1400_loged_in" transform="translate(-567.000000, -13.000000)">
            <g id="Smith_Navigation_1418">
                <g id="Header">
                    <g id="MMS_Logo_Tavel_Club" transform="translate(567.000000, 13.000000)">
                        <g id="Logo">
                            <g id="M&amp;MS_Web_Logo" transform="translate(54.000000, 0.000000)">
                                <g id="Group-3">
                                    <mask id="mask-2" fill="white">
                                        <use xlink:href="#path-1"></use>
                                    </mask>
                                    <g id="Clip-2"></g>
                                    <path d="M39.4548409,16.2234205 C40.4254091,9.67084091 36.281,3.12572727 30.2352727,1.11490909 C24.1339659,-0.953977273 17.1085455,1.94279545 13.2602841,6.67120455 C11.3291023,8.96157955 9.52069318,12.0118182 9.51322727,15.31175 C9.46345455,18.6324205 11.3921477,21.6104886 13.477625,23.7366136 C17.8045341,28.0900682 23.1824773,30.9495114 27.6387955,34.72975 C36.4502273,42.1865341 45.9012386,49.95025 50.6288182,60.3809545 C51.6284205,62.9417614 51.8416136,65.8227727 49.849875,67.6038068 C48.0165795,69.4935114 45.4035114,70.0094886 42.6328295,70.4823295 C36.9454659,71.2695682 30.8483068,70.664 25.1966136,69.4055795 C15.3615227,67.2114318 3.97601136,62.6622045 1.533,51.948625 C-1.44921591,41.1545795 7.49328409,31.5243864 17.0678977,27.6976932 C7.82593182,31.2058409 -1.82334091,40.0205909 0.295318182,51.1406477 C1.85735227,62.2474318 13.0139091,68.410125 22.6714773,71.0431023 C28.533875,72.5578523 34.7280909,73.3616818 40.8443295,72.8415568 C43.8522614,72.5296477 47.03025,71.9041705 49.8739318,70.2691364 C53.3945227,68.2508523 53.9693977,64.2267273 53.1805,61.1598977 C50.7648636,51.7304545 36.2884659,39.1338068 29.7898068,33.7085795 C25.1617727,29.8487045 19.9124091,26.9029886 15.7140795,22.9112159 C13.6302614,20.9277727 11.8542045,18.6357386 11.6269091,15.9214659 C11.4560227,13.2113409 12.7617273,10.7160682 14.5576932,8.48956818 C18.0227045,3.98513636 23.9373636,1.38865909 29.3526364,3.10001136 C34.7338977,4.74582955 38.1342045,10.3427727 37.3336932,15.9289318 L39.4548409,16.2234205" id="Fill-1" fill="#D53439" mask="url(#mask-2)"></path>
                                </g>
                                <path d="M121.850273,50.7466136 C118.401023,52.0058636 114.680511,49.9701591 112.947591,47.0037045 C111.122591,44.019 110.453148,40.4984091 109.200534,37.1810568 C108.570909,35.5261136 107.791136,33.8778068 106.630602,32.4717273 C104.987273,32.2676591 103.388739,34.4551705 102.29208,35.6347841 C101.187955,36.8077614 100.041523,38.4237159 98.6478864,39.1835795 C97.3023636,39.9691591 95.4682386,39.3884773 94.252125,38.5265795 C92.1293182,36.2411818 91.9899545,32.2958636 91.6174886,28.9552841 C91.4059545,26.1489318 91.3263182,23.3226705 91.2052045,20.4814773 C93.6482159,18.1239091 95.8796932,15.6153636 98.0497841,13.067 C95.7892727,14.9567045 93.49475,16.8049318 91.1147841,18.4822727 C91.1147841,18.459875 91.1106364,18.4333295 91.1106364,18.4084432 C90.9994773,16.6357045 90.6278409,12.7376705 90.2047727,11.6907841 C89.8712955,11.7729091 89.2532841,11.8799205 88.4917614,12.0250909 L88.5066932,13.3482159 C88.5183068,14.2101136 88.4735114,15.0811364 88.4602386,15.9496705 C88.4013409,17.52 88.3100909,19.0969659 88.1989318,20.6672955 C85.8596136,22.4889773 83.2788977,23.9564432 80.5679432,24.9784432 C81.4464318,17.0778523 82.928,9.75130682 82.928,9.75130682 C82.928,9.75130682 81.8927273,9.47340909 81.0723068,9.33238636 C81.0723068,9.33238636 79.0473864,19.0239659 77.3393523,25.960625 C73.9805227,26.7462045 70.4790114,26.836625 67.0098523,26.0576818 L66.6564659,27.9001023 C70.0211023,28.6699205 73.4819659,28.6334205 76.8374773,27.9714432 C76.6251136,28.7885455 76.4193864,29.5450909 76.2319091,30.1987727 C75.1136818,34.0835341 73.8171023,37.9259886 72.0908182,41.5204091 C71.1965682,43.279875 70.0103182,45.3089432 69.3989432,45.8290682 C69.1733068,45.4499659 68.9435227,45.0385114 68.8705227,44.8211705 C68.4798068,43.9443409 68.1471591,43.0417955 67.844375,42.0853295 C67.3142955,40.432875 65.5622955,32.2552159 64.3810227,30.0768295 C63.9621023,30.0768295 63.1250909,30.0618977 62.7061705,30.0618977 C62.5029318,30.3754659 60.3627045,35.5733977 60.3627045,35.5733977 C59.6011818,37.4481705 58.8321932,39.3179659 57.843375,40.9928182 C57.3854659,41.8646705 56.7906818,42.6037955 56.2083409,43.3578523 C55.9097045,43.7187045 55.6683068,43.89125 55.6683068,43.89125 C54.7806932,42.1185114 54.0598182,40.6004432 53.4575682,38.6742386 C52.7391818,36.8061023 52.2107614,34.8193409 51.5985568,32.8898182 L50.1028864,28.1680455 L48.3848977,28.0096023 C48.3848977,28.0096023 46.1683523,32.7156136 45.305625,34.5372955 C44.8302955,35.4771705 43.9750341,37.2706477 43.3835682,38.2544886 C41.5146023,35.4033409 40.8053409,31.5069659 40.7240455,27.9565114 L38.8501023,27.9565114 C39.0541705,36.8691477 42.7879545,40.5813636 42.7879545,40.5813636 C42.4918068,40.6269886 44.1052727,40.5091932 44.2545909,40.4610795 C44.7962841,39.5917159 45.9418864,37.7368523 46.8460909,35.67875 C47.7212614,33.8404773 49.0045682,30.8997386 49.0045682,30.8997386 L49.6781591,33.0183977 C50.2978295,34.9421136 50.8021932,36.8766136 51.5122841,38.8069659 C52.1460568,40.7373182 52.8909886,42.6353182 53.8632159,44.4893523 L54.5334886,45.8829886 L55.93625,46.1708409 C55.93625,46.1708409 57.7048409,44.8120455 59.0926705,42.5556818 C61.3125341,38.9695568 62.7078295,34.5621818 63.4909205,32.9113864 C63.8210795,34.0005795 64.0765795,34.7720568 64.2988977,35.7492614 C64.7833523,37.6630227 65.2064205,39.6489545 65.7348409,41.6265909 C66.3553409,43.5834886 66.9310455,45.6200227 68.1894659,47.4259432 L68.5030341,47.9386023 C68.5030341,47.9386023 69.3383864,48.0232159 69.979625,48.0680114 C69.979625,48.0680114 71.3019205,46.5715114 71.5740114,46.1227273 C72.1870455,45.2633182 72.7279091,44.3732159 73.1990909,43.4540795 C75.1559886,39.7999318 76.4484205,35.9276136 77.6379886,32.056125 L78.2095455,30.1340682 C78.1199545,31.6720455 78.0925795,33.0217159 78.0801364,34.5704773 C78.064375,38.6402273 78.3588636,42.7605795 79.4911932,46.765625 C79.7442045,47.7776705 80.1075455,48.7532159 80.4982614,49.7237841 L80.7122841,50.269625 C81.3916818,50.4106477 82.2270341,50.6113977 82.2369886,50.5997841 L82.8798864,49.8465568 C83.9865,48.6561591 85.2905455,46.0571932 86.3067386,42.7813182 C88.9131705,34.3904659 89.84475,23.8137614 89.84475,23.8137614 C89.84475,23.8137614 89.9733295,25.9340795 90.0571136,26.9942386 C90.4445114,30.6226705 90.5457159,34.3622614 92.3109886,37.8936364 C93.2533523,39.8082273 95.4433523,40.6875455 97.4350909,40.6245 C99.6839886,40.4079886 100.852818,38.7853977 102.102114,37.2905568 C104.417375,34.5281705 106.1055,33.1038409 106.1055,33.1038409 C106.374273,33.4505909 106.672909,33.771625 106.888591,34.1573636 C107.375534,34.8857045 107.782011,35.6837273 108.1495,36.4933636 C109.637705,39.7543068 110.322909,43.4159205 112.176943,46.6577841 C113.869216,49.9096023 117.89417,52.35925 121.574034,51.0576932 C124.83,50.1393864 129.106307,48.05225 131.495398,51.4932045 C129.287977,48.1086591 124.959409,49.8515341 121.850273,50.7466136 M85.2026136,39.9285114 C84.6667273,41.856375 84.07775,43.7825795 83.2565,45.5602955 C82.8815455,46.473625 82.2021477,47.5785795 81.8927273,48.1028523 C81.0930455,46.199875 80.2195341,42.0148182 79.9839432,36.6244318 C79.8628295,33.771625 80.0370341,30.4003523 80.3564091,27.0315682 C83.0756591,26.1082841 85.6704773,24.7851591 87.9998409,23.1517841 C87.4846932,28.8150909 86.6037159,34.4576591 85.2026136,39.9285114" id="Fill-4" fill="#D53439"></path>
                                <polyline id="Fill-5" fill="#FFFFFE" points="74.5728182 66.7012614 73.3973523 66.7012614 73.3973523 58.7525568 70.1953068 66.7012614 69.7133409 66.7012614 66.4971932 58.7525568 66.4971932 66.7012614 65.3208977 66.7012614 65.3208977 57.2510795 67.0073636 57.2510795 69.9547386 64.5336591 72.8871818 57.2510795 74.5728182 57.2510795 74.5728182 66.7012614"></polyline>
                                <path d="M77.9449205,66.7012614 L76.8822727,66.7012614 L76.8822727,59.8575114 L77.9449205,59.8575114 L77.9449205,60.9491932 C78.5969432,60.1179886 79.3576364,59.7023864 80.2261705,59.7023864 L80.2261705,60.7932386 C80.0561136,60.7741591 79.9192386,60.7650341 79.8155455,60.7650341 C79.4845568,60.7650341 79.1303409,60.8761932 78.7528977,61.0976818 C78.3754545,61.32 78.1058523,61.5721818 77.9449205,61.8550568 L77.9449205,66.7012614" id="Fill-6" fill="#FFFFFE"></path>
                                <path d="M86.714875,59.3199659 C86.714875,59.7637727 86.9040114,60.3062955 87.2822841,60.9491932 C87.8961477,60.6464091 88.3615227,60.3535795 88.67675,60.0707045 C88.9936364,59.787 89.1520795,59.4327841 89.1520795,59.0080568 C89.1520795,58.6679432 89.0483864,58.4033182 88.841,58.2141818 C88.6327841,58.0250455 88.3640114,57.9313068 88.0330227,57.9313068 C87.6647045,57.9313068 87.3527955,58.0607159 87.0972955,58.3211932 C86.842625,58.5808409 86.714875,58.9126591 86.714875,59.3199659 Z M87.3104886,65.9928295 C88.0189205,65.9928295 88.6750909,65.68175 89.2798295,65.0579318 C88.6560114,64.4067386 88.2221591,63.9289205 87.9766136,63.6269659 C87.5228523,63.1068409 87.1304773,62.606625 86.8003182,62.1254886 C85.8654205,62.6912386 85.3975568,63.3714659 85.3975568,64.1645114 C85.3975568,64.7319205 85.5842045,65.1782159 85.9566705,65.5042273 C86.3299659,65.8294091 86.7812386,65.9928295 87.3104886,65.9928295 Z M92.4246364,66.7012614 L90.9521932,66.7012614 C90.7622273,66.5411591 90.4179659,66.2101705 89.91775,65.7099545 C89.1429545,66.4839205 88.2354318,66.8713182 87.1968409,66.8713182 C86.3465568,66.8713182 85.6455909,66.6423636 85.0922841,66.1844545 C84.5398068,65.7257159 84.2635682,65.0770114 84.2635682,64.2358523 C84.2635682,63.5655795 84.4485568,63.01725 84.8160455,62.5925227 C85.1843636,62.1669659 85.6953636,61.7754205 86.3465568,61.4162273 C85.8654205,60.5949773 85.6248523,59.8857159 85.6248523,59.2909318 C85.6248523,58.6679432 85.8529773,58.1486477 86.3117159,57.7330455 C86.769625,57.3174432 87.3337159,57.1092273 88.0048182,57.1092273 C88.6278068,57.1092273 89.1379773,57.2743068 89.5353295,57.6044659 C89.9310227,57.9362841 90.1292841,58.3892159 90.1292841,58.9649205 C90.1292841,59.3050341 90.0678977,59.6094773 89.9459545,59.8790795 C89.8223523,60.1486818 89.6240909,60.3942273 89.3503409,60.6157159 C89.0765909,60.8380341 88.8385114,61.0105795 88.6352727,61.1325227 C88.4320341,61.256125 88.1267614,61.4212045 87.7211136,61.6294205 C88.0230682,62.0350682 88.3922159,62.4838523 88.8260682,62.9749432 C89.1661818,63.3814205 89.5394773,63.8011705 89.9459545,64.2358523 C90.3615568,63.5937841 90.7016705,62.87125 90.9654659,62.06825 L91.8729886,62.478875 C91.4565568,63.4801364 91.0268523,64.2930909 90.5830455,64.9160795 C91.1687045,65.5208182 91.7825682,66.1156023 92.4246364,66.7012614 L92.4246364,66.7012614 Z" id="Fill-7" fill="#FFFFFE"></path>
                                <polyline id="Fill-8" fill="#FFFFFE" points="106.862045 66.7012614 105.68658 66.7012614 105.68658 58.7525568 102.484534 66.7012614 102.002568 66.7012614 98.7864205 58.7525568 98.7864205 66.7012614 97.6109545 66.7012614 97.6109545 57.2510795 99.2965909 57.2510795 102.243966 64.5336591 105.176409 57.2510795 106.862045 57.2510795 106.862045 66.7012614"></polyline>
                                <path d="M110.234977,66.7012614 L109.17233,66.7012614 L109.17233,59.8575114 L110.234977,59.8575114 L110.234977,60.9491932 C110.88617,60.1179886 111.646864,59.7023864 112.516227,59.7023864 L112.516227,60.7932386 C112.34617,60.7741591 112.209295,60.7650341 112.104773,60.7650341 C111.773784,60.7650341 111.419568,60.8761932 111.042125,61.0976818 C110.663852,61.32 110.39508,61.5721818 110.234977,61.8550568 L110.234977,66.7012614" id="Fill-9" fill="#FFFFFE"></path>
                                <path d="M116.029352,66.8713182 C114.876284,66.8713182 113.956318,66.5129545 113.266136,65.7945682 L113.804511,65.0288977 C114.040932,65.3034773 114.364455,65.5349205 114.77508,65.7232273 C115.186534,65.9123636 115.61375,66.0069318 116.057557,66.0069318 C116.568557,66.0069318 116.966739,65.8982614 117.25542,65.68175 C117.542443,65.4644091 117.686784,65.1807045 117.686784,64.8306364 C117.686784,64.5286818 117.539955,64.2906023 117.247955,64.1155682 C116.955125,63.9405341 116.600909,63.8086364 116.185307,63.7182159 C115.769705,63.6294545 115.356591,63.5249318 114.945136,63.4063068 C114.534511,63.2893409 114.182784,63.0861023 113.889955,62.7974205 C113.597125,62.5095682 113.451125,62.1296364 113.451125,61.657625 C113.451125,61.1001705 113.677591,60.6323068 114.130523,60.2548636 C114.584284,59.8774205 115.202295,59.6874545 115.986216,59.6874545 C117.035591,59.6874545 117.880898,60.0184432 118.522966,60.6795909 L118.026898,61.4162273 C117.544932,60.8405227 116.865534,60.5518409 115.986216,60.5518409 C115.524159,60.5518409 115.155841,60.653875 114.881261,60.8562841 C114.607511,61.0595227 114.470636,61.3175114 114.470636,61.6294205 C114.470636,61.8550568 114.57433,62.0450227 114.782545,62.1951705 C114.989932,62.3469773 115.252898,62.4556477 115.568955,62.5211818 C115.885011,62.5875455 116.225125,62.6729886 116.589295,62.7766818 C116.952636,62.8812045 117.29275,62.9956818 117.608807,63.1242614 C117.925693,63.2511818 118.18783,63.4593977 118.396045,63.74725 C118.603432,64.0351023 118.707955,64.3868295 118.707955,64.8024318 C118.707955,65.408 118.473193,65.9032386 118.006159,66.2906364 C117.538295,66.6780341 116.879636,66.8713182 116.029352,66.8713182" id="Fill-10" fill="#FFFFFE"></path>
                                <path d="M127.350159,66.8713182 C125.819648,66.8713182 124.611,66.3711023 123.723386,65.3698409 L124.430989,64.4631477 C125.214909,65.3698409 126.202898,65.8227727 127.392466,65.8227727 C128.157307,65.8227727 128.718909,65.6576932 129.078932,65.3267045 C129.437295,64.9957159 129.616477,64.614125 129.616477,64.1794432 C129.616477,63.8011705 129.477114,63.4876023 129.198386,63.2370795 C128.920489,62.9873864 128.575398,62.8048864 128.164773,62.6912386 C127.753318,62.5775909 127.304534,62.4481818 126.81842,62.3013523 C126.331477,62.1561818 125.883523,62.0018864 125.472068,61.8417841 C125.062273,61.6808523 124.717182,61.4212045 124.438455,61.0620114 C124.159727,60.7036477 124.020364,60.2590114 124.020364,59.7305909 C124.020364,58.9557955 124.327295,58.3228523 124.941159,57.8317614 C125.555852,57.3406705 126.334795,57.095125 127.279648,57.095125 C128.667477,57.095125 129.781557,57.5389318 130.622716,58.4265455 L129.914284,59.2909318 C129.244011,58.5352159 128.332341,58.1569432 127.180102,58.1569432 C126.612693,58.1569432 126.147318,58.2971364 125.783977,58.5750341 C125.419807,58.8545909 125.238966,59.2162727 125.238966,59.65925 C125.238966,59.9902386 125.37833,60.2639886 125.657057,60.4813295 C125.935784,60.6986705 126.280875,60.8587727 126.6915,60.9624659 C127.102125,61.0669886 127.550909,61.1963977 128.037023,61.3531818 C128.523966,61.5083068 128.97275,61.6742159 129.383375,61.8484205 C129.794,62.0234545 130.138261,62.3038409 130.417818,62.6912386 C130.695716,63.0786364 130.835909,63.5465 130.835909,64.0948295 C130.835909,64.8596705 130.549716,65.5133523 129.978159,66.0567045 C129.406602,66.6000568 128.530602,66.8713182 127.350159,66.8713182" id="Fill-11" fill="#FFFFFE"></path>
                                <path d="M142.014034,66.7012614 L140.951386,66.7012614 L140.951386,62.0541477 C140.951386,61.1092955 140.530807,60.6372841 139.691307,60.6372841 C139.350364,60.6372841 139.01025,60.7393182 138.670136,60.9417273 C138.330852,61.1449659 138.066227,61.393 137.877091,61.685 L137.877091,66.7012614 L136.814443,66.7012614 L136.814443,62.0541477 C136.814443,61.1092955 136.393864,60.6372841 135.553534,60.6372841 C135.222545,60.6372841 134.889068,60.7418068 134.554761,60.9491932 C134.219625,61.1574091 133.952511,61.4071023 133.75425,61.6999318 L133.75425,66.7012614 L132.691602,66.7012614 L132.691602,59.8575114 L133.75425,59.8575114 L133.75425,60.8496477 C133.933432,60.5758977 134.232898,60.3137614 134.653477,60.0632386 C135.074057,59.8127159 135.515375,59.6874545 135.978261,59.6874545 C136.470182,59.6874545 136.870852,59.8060795 137.182761,60.0425 C137.49467,60.2780909 137.702057,60.5850227 137.80658,60.9624659 C138.013966,60.6231818 138.330852,60.3262045 138.75558,60.0707045 C139.180307,59.8152045 139.629091,59.6874545 140.101932,59.6874545 C141.376943,59.6874545 142.014034,60.3776364 142.014034,61.7563409 L142.014034,66.7012614" id="Fill-12" fill="#FFFFFE"></path>
                                <path d="M144.281182,66.7012614 L145.34383,66.7012614 L145.34383,59.8575114 L144.281182,59.8575114 L144.281182,66.7012614 Z M145.323091,58.6745795 C145.186216,58.8114545 145.017818,58.8803068 144.819557,58.8803068 C144.621295,58.8803068 144.451239,58.8114545 144.309386,58.6745795 C144.167534,58.5377045 144.097023,58.3701364 144.097023,58.171875 C144.097023,57.9736136 144.167534,57.8035568 144.309386,57.6617045 C144.451239,57.5198523 144.621295,57.4493409 144.819557,57.4493409 C145.017818,57.4493409 145.186216,57.5198523 145.323091,57.6617045 C145.459966,57.8035568 145.527989,57.9736136 145.527989,58.171875 C145.527989,58.3701364 145.459966,58.5377045 145.323091,58.6745795 L145.323091,58.6745795 Z" id="Fill-13" fill="#FFFFFE"></path>
                                <path d="M149.353852,66.8713182 C148.333511,66.8713182 147.823341,66.3379205 147.823341,65.2702955 L147.823341,60.7932386 L146.689352,60.7932386 L146.689352,59.8575114 L147.823341,59.8575114 L147.823341,57.9877159 L148.900091,57.9877159 L148.900091,59.8575114 L150.28875,59.8575114 L150.28875,60.7932386 L148.900091,60.7932386 L148.900091,65.0438295 C148.900091,65.307625 148.958159,65.5208182 149.076784,65.68175 C149.195409,65.8418523 149.362977,65.9223182 149.579489,65.9223182 C149.882273,65.9223182 150.12367,65.8227727 150.302852,65.6245114 L150.614761,66.4324886 C150.302852,66.7244886 149.882273,66.8713182 149.353852,66.8713182" id="Fill-14" fill="#FFFFFE"></path>
                                <path d="M157.613636,66.7012614 L156.550989,66.7012614 L156.550989,62.1951705 C156.550989,61.6194659 156.419091,61.2163068 156.153636,60.9848636 C155.889841,60.7525909 155.50742,60.6372841 155.006375,60.6372841 C154.619807,60.6372841 154.239045,60.7418068 153.86575,60.9491932 C153.492455,61.1574091 153.202943,61.4071023 152.994727,61.6999318 L152.994727,66.7012614 L151.93208,66.7012614 L151.93208,57.2510795 L152.994727,57.2510795 L152.994727,60.8496477 C153.249398,60.5286136 153.598636,60.2548636 154.043273,60.0275682 C154.48625,59.8011023 154.949966,59.6874545 155.431102,59.6874545 C156.886125,59.6874545 157.613636,60.4149659 157.613636,61.8699886 L157.613636,66.7012614" id="Fill-15" fill="#FFFFFE"></path>
                            </g>
                            <g id="Uppercase-typography" transform="translate(0.000000, 88.000000)" fill="#FFFFFF">
                                <path d="M4.164,11 L4.164,4.232 L6.588,4.232 L6.588,2.996 L0.336,2.996 L0.336,4.232 L2.76,4.232 L2.76,11 L4.164,11 Z M16.248,11 L16.248,2.996 L14.844,2.996 L14.844,6.272 L10.68,6.272 L10.68,2.996 L9.276,2.996 L9.276,11 L10.68,11 L10.68,7.508 L14.844,7.508 L14.844,11 L16.248,11 Z M24.936,11 L24.936,9.764 L20.856,9.764 L20.856,7.544 L24.852,7.544 L24.852,6.308 L20.856,6.308 L20.856,4.232 L24.936,4.232 L24.936,2.996 L19.452,2.996 L19.452,11 L24.936,11 Z M35.772,11 L35.772,4.232 L38.196,4.232 L38.196,2.996 L31.944,2.996 L31.944,4.232 L34.368,4.232 L34.368,11 L35.772,11 Z M47.076,11 L45.456,11 L43.68,8.012 L42.288,8.012 L42.288,11 L40.884,11 L40.884,2.996 L44.4,2.996 C45.984,2.996 47.016,4.028 47.016,5.504 C47.016,6.932 46.08,7.7 45.12,7.856 L47.076,11 Z M44.208,6.776 C45,6.776 45.576,6.272 45.576,5.504 C45.576,4.736 45,4.232 44.208,4.232 L42.288,4.232 L42.288,6.776 L44.208,6.776 Z M57.12,11 L55.524,11 L54.936,9.464 L51.264,9.464 L50.676,11 L49.08,11 L52.224,2.996 L53.976,2.996 L57.12,11 Z M54.54,8.228 L53.1,4.412 L51.66,8.228 L54.54,8.228 Z M62.952,11 L66.096,2.996 L64.5,2.996 L62.076,9.476 L59.652,2.996 L58.056,2.996 L61.2,11 L62.952,11 Z M73.956,11 L73.956,9.764 L69.876,9.764 L69.876,7.544 L73.872,7.544 L73.872,6.308 L69.876,6.308 L69.876,4.232 L73.956,4.232 L73.956,2.996 L68.472,2.996 L68.472,11 L73.956,11 Z M81.828,11 L81.828,9.764 L78.3,9.764 L78.3,2.996 L76.896,2.996 L76.896,11 L81.828,11 Z M93.024,11.144 C94.644,11.144 95.628,10.304 96.24,9.344 L95.04,8.732 C94.656,9.404 93.888,9.896 93.024,9.896 C91.44,9.896 90.264,8.684 90.264,7.004 C90.264,5.324 91.44,4.112 93.024,4.112 C93.888,4.112 94.656,4.616 95.04,5.276 L96.24,4.664 C95.64,3.704 94.644,2.864 93.024,2.864 C90.66,2.864 88.824,4.544 88.824,7.004 C88.824,9.464 90.66,11.144 93.024,11.144 Z M103.8,11 L103.8,9.764 L100.272,9.764 L100.272,2.996 L98.868,2.996 L98.868,11 L103.8,11 Z M109.74,11.144 C112.056,11.144 113.196,9.824 113.196,7.832 L113.196,2.996 L111.78,2.996 L111.78,7.796 C111.78,9.068 111.072,9.896 109.74,9.896 C108.396,9.896 107.688,9.068 107.688,7.796 L107.688,2.996 L106.272,2.996 L106.272,7.844 C106.272,9.812 107.412,11.144 109.74,11.144 Z M120.444,11 L116.4,11 L116.4,2.996 L120.336,2.996 C121.8,2.996 122.616,3.908 122.616,5.036 C122.616,6.044 121.968,6.716 121.224,6.872 C122.076,7.004 122.772,7.856 122.772,8.84 C122.772,10.076 121.944,11 120.444,11 Z M120.048,6.308 C120.768,6.308 121.176,5.876 121.176,5.276 C121.176,4.676 120.768,4.232 120.048,4.232 L117.804,4.232 L117.804,6.308 L120.048,6.308 Z M120.108,9.764 C120.876,9.764 121.332,9.344 121.332,8.648 C121.332,8.048 120.912,7.544 120.108,7.544 L117.804,7.544 L117.804,9.764 L120.108,9.764 Z M131.664,11 L131.664,7.544 L135.66,7.544 L135.66,6.308 L131.664,6.308 L131.664,4.232 L135.744,4.232 L135.744,2.996 L130.26,2.996 L130.26,11 L131.664,11 Z M142.236,11.144 C139.836,11.144 138.144,9.392 138.144,7.004 C138.144,4.616 139.836,2.864 142.236,2.864 C144.636,2.864 146.328,4.616 146.328,7.004 C146.328,9.392 144.636,11.144 142.236,11.144 Z M142.236,9.896 C143.844,9.896 144.888,8.648 144.888,7.004 C144.888,5.348 143.844,4.112 142.236,4.112 C140.616,4.112 139.584,5.348 139.584,7.004 C139.584,8.648 140.616,9.896 142.236,9.896 Z M155.376,11 L153.756,11 L151.98,8.012 L150.588,8.012 L150.588,11 L149.184,11 L149.184,2.996 L152.7,2.996 C154.284,2.996 155.316,4.028 155.316,5.504 C155.316,6.932 154.38,7.7 153.42,7.856 L155.376,11 Z M152.508,6.776 C153.3,6.776 153.876,6.272 153.876,5.504 C153.876,4.736 153.3,4.232 152.508,4.232 L150.588,4.232 L150.588,6.776 L152.508,6.776 Z M169.776,11 L169.776,2.996 L168.372,2.996 L168.372,6.272 L164.208,6.272 L164.208,2.996 L162.804,2.996 L162.804,11 L164.208,11 L164.208,7.508 L168.372,7.508 L168.372,11 L169.776,11 Z M176.712,11.144 C174.312,11.144 172.62,9.392 172.62,7.004 C172.62,4.616 174.312,2.864 176.712,2.864 C179.112,2.864 180.804,4.616 180.804,7.004 C180.804,9.392 179.112,11.144 176.712,11.144 Z M176.712,9.896 C178.32,9.896 179.364,8.648 179.364,7.004 C179.364,5.348 178.32,4.112 176.712,4.112 C175.092,4.112 174.06,5.348 174.06,7.004 C174.06,8.648 175.092,9.896 176.712,9.896 Z M186.672,11 L186.672,4.232 L189.096,4.232 L189.096,2.996 L182.844,2.996 L182.844,4.232 L185.268,4.232 L185.268,11 L186.672,11 Z M197.268,11 L197.268,9.764 L193.188,9.764 L193.188,7.544 L197.184,7.544 L197.184,6.308 L193.188,6.308 L193.188,4.232 L197.268,4.232 L197.268,2.996 L191.784,2.996 L191.784,11 L197.268,11 Z M205.14,11 L205.14,9.764 L201.612,9.764 L201.612,2.996 L200.208,2.996 L200.208,11 L205.14,11 Z M217.428,11 L217.428,9.764 L213.9,9.764 L213.9,2.996 L212.496,2.996 L212.496,11 L217.428,11 Z M223.572,11.144 C221.172,11.144 219.48,9.392 219.48,7.004 C219.48,4.616 221.172,2.864 223.572,2.864 C225.972,2.864 227.664,4.616 227.664,7.004 C227.664,9.392 225.972,11.144 223.572,11.144 Z M223.572,9.896 C225.18,9.896 226.224,8.648 226.224,7.004 C226.224,5.348 225.18,4.112 223.572,4.112 C221.952,4.112 220.92,5.348 220.92,7.004 C220.92,8.648 221.952,9.896 223.572,9.896 Z M234.336,11 L237.48,2.996 L235.884,2.996 L233.46,9.476 L231.036,2.996 L229.44,2.996 L232.584,11 L234.336,11 Z M245.34,11 L245.34,9.764 L241.26,9.764 L241.26,7.544 L245.256,7.544 L245.256,6.308 L241.26,6.308 L241.26,4.232 L245.34,4.232 L245.34,2.996 L239.856,2.996 L239.856,11 L245.34,11 Z M254.472,11 L252.852,11 L251.076,8.012 L249.684,8.012 L249.684,11 L248.28,11 L248.28,2.996 L251.796,2.996 C253.38,2.996 254.412,4.028 254.412,5.504 C254.412,6.932 253.476,7.7 252.516,7.856 L254.472,11 Z M251.604,6.776 C252.396,6.776 252.972,6.272 252.972,5.504 C252.972,4.736 252.396,4.232 251.604,4.232 L249.684,4.232 L249.684,6.776 L251.604,6.776 Z M260.052,11.144 C262.212,11.144 263.148,10.004 263.148,8.672 C263.148,6.932 261.576,6.524 260.256,6.188 C259.308,5.948 258.492,5.744 258.492,5.12 C258.492,4.52 259.02,4.124 259.848,4.124 C260.688,4.124 261.54,4.412 262.164,5.036 L262.968,3.992 C262.224,3.272 261.216,2.876 259.968,2.876 C258.216,2.876 257.052,3.896 257.052,5.216 C257.052,6.908 258.588,7.292 259.896,7.616 C260.868,7.868 261.72,8.084 261.72,8.804 C261.72,9.332 261.264,9.896 260.112,9.896 C258.996,9.896 258.132,9.38 257.58,8.792 L256.8,9.872 C257.508,10.628 258.576,11.144 260.052,11.144 Z" id="The-travel-club-for"></path>
                            </g>
                        </g>
                    </g>
                </g>
            </g>
        </g>
    </g>
</svg>