<svg id="Layer_1" data-name="Layer 1" xmlns="http://www.w3.org/2000/svg" viewBox="0 0 55.43 1088"><defs><style>.cls-1{fill:#0a0a0a;}</style></defs><title>triangle-gradient</title><polygon class="cls-1" points="55.43 1090 0 1058 0 1122 55.43 1090"/><polygon class="cls-1" points="1.62 995.88 1.62 1056.13 53.8 1026 1.62 995.88"/><polygon class="cls-1" points="3.25 933.75 3.25 990.25 52.18 962 3.25 933.75"/><polygon class="cls-1" points="4.87 871.63 4.87 924.38 50.55 898 4.87 871.63"/><polygon class="cls-1" points="6.5 809.5 6.5 858.5 48.93 834 6.5 809.5"/><polygon class="cls-1" points="8.12 747.38 8.12 792.63 47.31 770 8.12 747.38"/><polygon class="cls-1" points="9.74 685.25 9.74 726.75 45.68 706 9.74 685.25"/><polygon class="cls-1" points="11.37 623.13 11.37 660.88 44.06 642 11.37 623.13"/><polygon class="cls-1" points="12.99 561 12.99 595 42.44 578 12.99 561"/><polygon class="cls-1" points="14.61 498.88 14.61 529.13 40.81 514 14.61 498.88"/><polygon class="cls-1" points="16.24 436.75 16.24 463.25 39.19 450 16.24 436.75"/><polygon class="cls-1" points="17.86 374.63 17.86 397.38 37.56 386 17.86 374.63"/><polygon class="cls-1" points="19.49 312.5 19.49 331.5 35.94 322 19.49 312.5"/><polygon class="cls-1" points="21.11 250.38 21.11 265.63 34.32 258 21.11 250.38"/><polygon class="cls-1" points="22.73 188.25 22.73 199.75 32.69 194 22.73 188.25"/><polygon class="cls-1" points="24.36 126.13 24.36 133.88 31.07 130 24.36 126.13"/><polygon class="cls-1" points="29.45 66 25.98 64 25.98 68 29.45 66"/><polygon class="cls-1" points="0 1058 55.43 1026 55.43 1090 0 1058"/><polygon class="cls-1" points="53.8 963.88 53.8 1024.13 1.62 994 53.8 963.88"/><polygon class="cls-1" points="52.18 901.75 52.18 958.25 3.25 930 52.18 901.75"/><polygon class="cls-1" points="50.55 839.63 50.55 892.38 4.87 866 50.55 839.63"/><polygon class="cls-1" points="48.93 777.5 48.93 826.5 6.5 802 48.93 777.5"/><polygon class="cls-1" points="47.31 715.38 47.31 760.63 8.12 738 47.31 715.38"/><polygon class="cls-1" points="45.68 653.25 45.68 694.75 9.74 674 45.68 653.25"/><polygon class="cls-1" points="44.06 591.13 44.06 628.88 11.37 610 44.06 591.13"/><polygon class="cls-1" points="42.44 529 42.44 563 12.99 546 42.44 529"/><polygon class="cls-1" points="40.81 466.88 40.81 497.13 14.61 482 40.81 466.88"/><polygon class="cls-1" points="39.19 404.75 39.19 431.25 16.24 418 39.19 404.75"/><polygon class="cls-1" points="37.56 342.63 37.56 365.38 17.86 354 37.56 342.63"/><polygon class="cls-1" points="35.94 280.5 35.94 299.5 19.49 290 35.94 280.5"/><polygon class="cls-1" points="34.32 218.38 34.32 233.63 21.11 226 34.32 218.38"/><polygon class="cls-1" points="32.69 156.25 32.69 167.75 22.73 162 32.69 156.25"/><polygon class="cls-1" points="31.07 94.13 31.07 101.88 24.36 98 31.07 94.13"/><polygon class="cls-1" points="25.98 34 29.45 32 29.45 36 25.98 34"/></svg>